<svg xmlns="http://www.w3.org/2000/svg" viewBox="0 0 841.9 595.3">

<style>
	.style0{
		fill:	none;
	}
</style><g>
	<path d="M1256.8 658.5c-0.3 0.5-0.7 1.1-1 1.6C1256.2 659.6 1256.5 659.1 1256.8 658.5z" class="style0"/>
	<path d="M1263.9 642.8c-0.1 0.2-0.1 0.4-0.2 0.6C1263.8 643.2 1263.8 643 1263.9 642.8z" class="style0"/>
	<path d="M1258.5 655.7c-0.1 0.3-0.3 0.5-0.4 0.8C1258.2 656.2 1258.3 655.9 1258.5 655.7z" class="style0"/>
	<path d="M1259.7 653.3c-0.1 0.2-0.2 0.4-0.3 0.6C1259.5 653.7 1259.6 653.5 1259.7 653.3z" class="style0"/>
	<path d="M918.6 839.6c0.3 0.3 0.6 0.6 0.9 1C919.2 840.2 918.9 839.9 918.6 839.6z" class="style0"/>
	<path d="M918.3 839.3c0.1 0.1 0.1 0.1 0.2 0.2C918.4 839.4 918.3 839.4 918.3 839.3z" class="style0"/>
	<path d="M1272.2 616.3L1272.2 616.3c0.2-0.8 0.4-1.5 0.7-2.3l0 0C1272.7 614.7 1272.5 615.5 1272.2 616.3z" class="style0"/>
	<path d="M971.1 857.9c0.1 0.1 0.3 0.3 0.5 0.3C971.4 858.2 971.2 858.1 971.1 857.9z" class="style0"/>
	<path d="M970.5 856.8c0 0.1 0 0.1 0 0.2C970.5 857 970.5 856.9 970.5 856.8z" class="style0"/>
	<path d="M971.1 857.9c0 0-0.1-0.1-0.1-0.1C971 857.8 971 857.9 971.1 857.9z" class="style0"/>
	<path d="M970.4 856.3c-0.1-1 0.1-2.1 0.5-2.5h0C970.5 854.2 970.3 855.3 970.4 856.3z" class="style0"/>
	<path d="M970.6 857.1c0.1 0.2 0.2 0.4 0.3 0.5C970.8 857.5 970.7 857.3 970.6 857.1z" class="style0"/>
	<path d="M921.2 845.4c-0.1-1.5-0.5-2.7-1-3.7C920.7 842.8 921 843.9 921.2 845.4L921.2 845.4z" class="style0"/>
	<path d="M923 857.9c-0.4-4-2.5-9-1.8-12.5l0 0C920.5 848.9 922.6 853.8 923 857.9z" class="style0"/>
	<path d="M922.9 860.5c0.2-0.8 0.2-1.7 0.1-2.6C923.1 858.8 923 859.7 922.9 860.5z" class="style0"/>
	<path d="M970.4 856.4c0 0.1 0 0.2 0 0.2C970.5 856.6 970.4 856.5 970.4 856.4z" class="style0"/>
	<path d="M957.7 859.6c0.5 0 0.9 0 1.3-0.1C958.6 859.6 958.2 859.6 957.7 859.6z" class="style0"/>
	<path d="M919.9 841.3c0.1 0.1 0.1 0.2 0.2 0.2C920 841.4 919.9 841.3 919.9 841.3z" class="style0"/>
	<path d="M915.6 837.4c0.2 0.1 0.4 0.2 0.6 0.4C916 837.6 915.8 837.5 915.6 837.4z" class="style0"/>
	
	<g>
		<polygon points="52.4,445.7 171.4,445.7 171.4,123.5 52.4,123.5 52.4,445.7"/>
		<polygon points="183.7,468.2 302.7,468.2 302.7,146 183.7,146 183.7,468.2"/>
		<polygon points="315,396.3 423.3,445.7 556.9,152.5 448.6,103.1 315,396.3"/>
		<polygon points="467.3,349.2 467.3,468.2 789.4,468.2 789.4,349.2 467.3,349.2"/>
		<path d="M99.7 94.8c0 7.6 0.1 13.5 6 18.7v0.4H68.9v-0.4c6.6-4.1 5.7-11.4 5.7-18.3V46.3c0-6.8 1-14.3-5.7-18.2v-0.4h84.6 c2 0 5.3 9.6 6.8 8.8l0 0l-0.7 9.4h-0.4c-3.6-6.2-48.5-5.4-55.2-5.4h-4.4v21.2h9.9c2 0 3.8-0.1 5-0.6h0.7v18.3h-0.7 c-1.8-5-7.3-4.7-12.2-4.7l-2.7-0.1V94.8z"/>
		<path d="M201.2 103.3c-5.3 7.5-13.6 12.3-23.6 12.3c-7.3 0-14.5-2.2-19.8-7.5c-6-6-6.4-12.4-6.4-20.4V46.4 c0-6.8 0.9-14.3-5.7-18.3v-0.4h36.1v0.4c-6.7 4.1-5.7 11.5-5.7 18.3v35.8c0 5.1-0.3 10.1 3 14.4c2 2.6 5.4 4.1 8.8 4.1 c12.4 0 13.3-14 13.3-22.8V46.4c0-6.8 1-14.3-5.7-18.3v-0.4h36.2v0.4c-6.6 4.1-5.7 11.5-5.7 18.3v48.8c0 6.8-0.9 14.3 5.7 18.3 v0.4h-30.5V103.3z"/>
		<path d="M312.2 45.6c-6.7-4.3-14.5-6.8-22.7-6.8c-18.6 0-23.9 14.4-23.9 30.3c0 18.1 9.1 32.8 29.3 32.8c10.6 0 20.2-3.8 29.3-8.5 l-6.8 19.1c-8.8 2.4-17.9 3.2-27 3.2c-13.9 0-25.5-2.2-36.4-11.3c-10.4-8.5-16-20.8-16-34.2c0-12 5.3-24.8 14.8-32.9 c10.3-8.5 24.5-11.7 37.9-11.7l20.5 1.7L312.2 45.6z"/>
		<path d="M407.5 104.8c2.2 3.4 4.8 6.5 7.9 8.8v0.4c-31.3 0-33.4 0-42.3-14.9L359 75.5v19.7c0 6.8-0.9 14.3 5.7 18.3v0.4h-36.5 v-0.4c6.7-4.1 5.7-11.5 5.7-18.3V46.4c0-7 0.9-14.3-5.7-18.3v-0.4h36.5v0.4c-6.6 4.1-5.7 11.5-5.7 18.3v20l16.9-20.8 c2.3-2.7 6.3-6.7 6.3-10.5c0-3.4-2.9-5.6-5.4-7.1v-0.4H410v0.4l-30 34.6L407.5 104.8z"/>
		<path d="M146.9 569.9c-4.8 0-12.2-3.3-16.3-5.2c-10.1-4.9-12.6-9.3-19.3-17.7l-26.1-33.5h-0.4V548c0 7.6 0.2 13.4 6 18.7v0.4H64.7 v-0.4c6-5.4 6.1-11.1 6.1-18.7v-45.2c0-10.1-0.6-13.6-7.9-21.5v-0.4h28.2v0.4l41.7 52.7V500c0-7.6-0.1-13.4-6-18.7v-0.4h26.1v0.4 c-5.8 5.4-6 11.1-6 18.7V569.9z"/>
		<path d="M210.5 478.8c28.5 0 49.4 16 49.4 44.8c0 28.6-23.5 45.2-51 45.2c-27.8 0-49.4-17.4-49.4-45.1 C159.4 495.8 182.9 478.8 210.5 478.8z M192.1 544.4c3.8 6.3 10.6 11.3 18.3 11.3c7.2 0 13.7-3.5 18.1-9.2c4.1-5.2 5-11.9 5-18.4 c0-14.9-6.1-36.3-24.7-36.3c-16 0-23.1 14.8-23.1 28.3C185.8 527.8 188.3 537.9 192.1 544.4z"/>
		<path d="M263.3 545.2c7.6 6 18.7 10.2 28.5 10.2c6.1 0 14.4-2 14.4-9.3c0-16-41.4-12.7-41.4-42.1c0-7.5 3.8-14.7 10.1-19 c6.9-4.7 15.3-6.3 23.6-6.3c7.6 0 15.7 1.3 22.8 3.9v15.3c-5.7-3.5-12.3-6.2-19.1-6.2c-5.3 0-11.8 2.2-11.8 8.4 c0 6.3 7.9 8.8 12.9 10.9c6.5 2.7 12.6 5.2 18 9.8c6.5 5.5 10 11.4 10 19.8c0 8.5-3.7 16.1-10.9 21.2c-8 5.6-16.7 6.8-26.3 6.8 c-9 0-17.9-1.6-26.3-4.7L263.3 545.2z"/>
		<path d="M378.2 548.1c0 7.5 0.2 13.4 6 18.6v0.4h-36.8v-0.4c6.7-4.1 5.7-11.5 5.7-18.3v-52.7c-2.3-0.5-4.3-0.5-6.8-0.5 c-6.2 0-10.2 1.5-15.3 4.9l-1 0.6l5.3-20.2l2.6 0.4h63l-4.6 19.8c-2-4.4-6.2-5.8-11.1-5.8c-2.5 0-4.6 0.1-6.9 0.8V548.1z"/>
		<path d="M420.6 541.1l-3.3 8.9c-1 2.6-2.4 6.7-2.4 9.4c0 3.7 2.4 5.4 4.9 7.3v0.4h-27.8v-0.4c5.2-4.6 6.9-8.4 9.4-15.1l18.7-52.3 c0.8-2.6 3-7.7 3-10.5c0-3.5-2.4-5.9-5.1-7.6v-0.4h33.2l25.7 67.5c3.2 8.4 3.9 11.4 11.7 18.3v0.4h-41v-0.4c3.1-2 5.5-3.8 5.5-8 c0-2.2-0.3-2.9-1.1-5l-4.5-12.7H420.6z M433.6 503h-0.2l-9 25.8h18.5L433.6 503z"/>
		<path d="M521.8 552.3c4.3 2 9.4 2.2 14.3 2.2c7.5 0 13.3-1.5 19.3-5.8l-5.2 18.4H491v-0.4c6.6-4.1 5.7-11.4 5.7-18.2v-48.9 c0-6.8 0.9-14.3-5.7-18.3v-0.4h36.5v0.4c-6.7 4.1-5.7 11.5-5.7 18.5V552.3z"/>
		<path d="M639.1 564.8c-9.4 2.5-19.1 4.1-28.9 4.1c-28.2 0-51-15.5-51-44.6c0-28.2 22.4-45.5 50.5-45.5c7.1 0 14.2 0.8 21 2.6v18.2 h-0.6c-4.6-4.2-13.1-7-20-7c-17.6 0-25.2 11.9-25.2 27.8c0 16.1 5.8 34.7 25.5 34.7c1.8 0 3.7 0 5.4-0.4v-19.4 c0-5.9-0.3-9-5.2-12.7v-0.4h28.5V564.8z"/>
		<path d="M673.8 548.5c0 6.8-1 14.1 5.7 18.2v0.4H643v-0.4c6.7-4.1 5.7-11.4 5.7-18.2v-48.9c0-6.8 1-14.3-5.7-18.3v-0.4h36.5v0.4 c-6.6 4.1-5.7 11.5-5.7 18.3V548.5z"/>
		<path d="M711.1 541l-3.3 8.9c-1 2.6-2.4 6.7-2.4 9.4c0 3.7 2.4 5.4 4.9 7.3v0.4h-27.8v-0.4c5.2-4.6 6.9-8.4 9.4-15.1l18.7-52.3 c0.8-2.6 3-7.7 3-10.5c0-3.5-2.5-5.9-5.2-7.6v-0.4h33.2l25.7 67.5c3.2 8.4 3.9 11.4 11.7 18.3v0.4h-41v-0.4c3.1-2 5.6-3.8 5.6-8 c0-2.2-0.3-2.9-1.1-5L738 541H711.1z M724.2 503H724l-8.9 25.8h18.4L724.2 503z"/>

		<g transform="translate(0,-627.16534)">
			<g transform="matrix(12.14014,0,0,12.138226,-7301.3555,-9219.9258)">
				<g transform="matrix(0.27514702,0,0,0.27514702,434.00931,645.42074)">
					<g transform="translate(612.57271,606.80288)">
						<g>
							<path d="M123.7 4.2c-2.3 0-4.2 1.9-4.2 4.2s1.9 4.2 4.2 4.2 c2.3 0 4.2-1.9 4.2-4.2S126.1 4.2 123.7 4.2z M126.3 6.5c0.2 0 0.3 0.2 0.3 0.4v0.3v2.4c0 0.1 0 0.1-0.1 0.1 c-0.4 0.1-0.8 0.1-1.2 0.2c-0.1 0-0.1 0-0.1-0.1V7.2c0-0.1-0.1-0.2-0.2-0.2c-0.7 0.1-1.3 0.2-2 0.4V7c1.2-0.2 1.8-0.3 3-0.5 L126.3 6.5C126.2 6.5 126.2 6.5 126.3 6.5z M122.2 6.9C122.3 6.9 122.3 7 122.2 6.9l0.1 2.6c0 0.1 0.1 0.2 0.2 0.2 c0.7-0.1 1.3-0.2 2-0.4v0.4c-1.2 0.2-2 0.3-3.2 0.6l0 0c-0.2 0-0.4-0.1-0.4-0.3v0V7.3c0-0.1 0-0.1 0.1-0.1 C121.5 7.1 121.8 7 122.2 6.9C122.2 6.9 122.2 6.9 122.2 6.9L122.2 6.9z M124.5 7.4C124.5 7.4 124.6 7.5 124.5 7.4l0.1 1.5 c0 0.1 0 0.1-0.1 0.1c-0.5 0.1-1 0.2-1.5 0.3c-0.1 0-0.1 0-0.1-0.1V7.8c0-0.1 0-0.1 0.1-0.1C123.5 7.6 124 7.5 124.5 7.4 C124.5 7.4 124.5 7.4 124.5 7.4L124.5 7.4z"/>
						</g>
					</g>
				</g>
			</g>
		</g>
	</g>
</g>
</svg>
