<svg xmlns="http://www.w3.org/2000/svg" viewBox="0 0 100 100">
	
	<style>
		<!-- freezer - thin line style -->
		.white {fill:white;}
		.black {fill:black;}
		.gray {fill:#ddd;}
		.stroke-black {fill:none;stroke:#000000;stroke-width:0.75;stroke-miterlimit:10;stroke-linecap:round;stroke-linejoin:round;}
		.stroke-black-thin {fill:none;stroke:#000000;stroke-width:0.645;stroke-miterlimit:10;stroke-linecap:round;stroke-linejoin:round;}
	</style>


	<g id="surfing">

		<circle id="bg" class="gray" cx="50" cy="50" r="49"/>
		
		<path id="circle-thin_1_" class="stroke-black" d="M7,49.5C7.3,26,26.4,7,50,7c23.7,0,43,19.3,43,43c0,6.4-1.4,12.4-3.9,17.8"/>
		
		<path id="wave" class="stroke-black" d="M25.7,42.4C15.5,50.7,8.6,51.1,7,51c0,0,0,0,0,0.3C7.7,74.5,26.7,93,50,93
			c16.8,0,31.4-9.7,38.5-23.8c-4.6-0.5-20-3.2-26.1-19.4c-6-16.1,9.2-23.4,18.9-19.4c0,0-6.4-11.4-18.5-11.4c-8.6,0-14.4,3.5-22,10
			 M88.5,69.2"/>
		
		<path id="surfboard-outline" class="stroke-black" d="M24.7,19.9c0,0,0,25.7,11.7,45.9c6.7,11.6,10,13.6,14.6,17.8c2.8,2.6,9.7,6.6,9.7,6.6
			l6.9-4c0,0,0-6.7-1.2-11.5c-1.5-6-1-10.1-7.5-21.8C47.5,32.6,24.7,19.9,24.7,19.9z"/>
		<line class="stroke-black" x1="60.9" y1="75" x2="63.7" y2="79.8"/>
		<line class="stroke-black" x1="54.1" y1="78.8" x2="56.9" y2="83.6"/>
		<line class="stroke-black" x1="62.7" y1="86.1" x2="60" y2="81.2"/>
	</g>
</svg>
