<svg xmlns="http://www.w3.org/2000/svg" viewBox="0 0 100 100">
	
	<style>
		<!-- freezer - thin line style -->
		.white {fill:white;}
		.black {fill:black;}
		.gray {fill:#ddd;}
		.stroke-black {fill:none;stroke:#000000;stroke-width:0.75;stroke-miterlimit:10;stroke-linecap:round;stroke-linejoin:round;}
		.stroke-black-thin {fill:none;stroke:#000000;stroke-width:0.645;stroke-miterlimit:10;stroke-linecap:round;stroke-linejoin:round;}
	</style>

	<g class="freezer-gasmask">
	
		<circle id="bg" class="gray" cx="50" cy="50" r="49"/>
	
		<path d="M65.574,10.715c1.248,0.496,2.479,1.055,3.682,1.673h-6.101c-0.414,0-0.75,0.336-0.75,0.75v6.313
			c0,0.414,0.336,0.75,0.75,0.75h10.118l-5.962,7.596c-0.454-2.115-1.101-4.744-1.735-6.007v-0.146c0-0.414-0.336-0.75-0.75-0.75
			h-7.108V13.1c0-1.172,0.545-1.695,3.773-1.695h3.335C65.221,11.405,65.543,11.101,65.574,10.715 M34.419,10.718
			c0,0.014,0,0.028,0,0.042v1.627h-3.674C31.945,11.771,33.173,11.214,34.419,10.718 M46.573,11.193c2.515,0,2.726,0.766,2.726,1.483
			v8.219h-6.457v-7.747c0-1.36,0.258-1.956,2.729-1.956H46.573 M34.421,20.202v2.069c-0.224,0.579-0.467,1.363-0.727,2.34h-8.985
			v-4.41H34.421 M80.931,21.236C88.236,29.083,92.25,39.264,92.25,50c0,9.689-3.364,19.154-9.473,26.652
			c-5.198,6.38-12.181,11.119-19.948,13.601c2.348-2.258,3.604-5.01,3.604-8.001c0-8.392-9.658-13.033-16.334-13.033
			S33.766,73.86,33.766,82.252c0,3.001,1.333,5.83,3.752,8.118C20.057,84.969,7.75,68.57,7.75,50c0-10.042,3.538-19.655,10-27.283
			v18.49c0,0.414,0.336,0.75,0.75,0.75h5.458c0.414,0,0.75-0.336,0.75-0.75v-9.021h7.377c-0.875,4.986-1.391,9.618-1.391,12.524v8.94
			c0,0.203,0.082,0.397,0.228,0.538l10.01,9.711c0.144,0.14,0.332,0.212,0.522,0.212c0.126,0,0.252-0.031,0.367-0.096
			c1.995-1.12,6.095-2.22,8.277-2.22c2.286,0,6.38,1.095,8.265,2.211c0.118,0.07,0.251,0.104,0.382,0.104
			c0.19,0,0.379-0.072,0.522-0.212l10.008-9.711c0.146-0.141,0.228-0.335,0.228-0.538v-8.94c0-0.794-0.036-1.718-0.108-2.754H81.5
			c0.414,0,0.75-0.336,0.75-0.75v-6.314c0-0.414-0.336-0.75-0.75-0.75H70.822L80.931,21.236 M41.719,70.34
			c0.13,0,0.26-0.033,0.378-0.103c2.155-1.257,5.24-2.069,7.859-2.069c2.623,0,5.673,0.796,7.96,2.076
			c0.114,0.064,0.24,0.096,0.366,0.096c0.178,0,0.354-0.062,0.493-0.185l0.177-0.154c0.244-0.214,0.324-0.561,0.197-0.859
			L57.2,64.563c-0.08-0.188-0.233-0.334-0.424-0.407c-2.516-0.958-4.811-1.443-6.821-1.443c-2.01,0-4.305,0.485-6.821,1.443
			c-0.194,0.074-0.349,0.226-0.428,0.419l-1.861,4.578c-0.121,0.297-0.039,0.639,0.203,0.849l0.178,0.154
			C41.367,70.277,41.542,70.34,41.719,70.34 M57.238,30.782c2.501,0,4.448,4.104,4.854,6.971v2.075
			c-0.405,2.868-2.353,6.972-4.854,6.972c-2.852,0-4.937-5.268-4.937-8.009C52.302,36.048,54.387,30.782,57.238,30.782
			 M42.961,30.782c2.853,0,4.938,5.267,4.938,8.008c0,2.742-2.085,8.009-4.938,8.009c-2.853,0-4.938-5.268-4.938-8.009
			C38.023,36.048,40.108,30.782,42.961,30.782 M50.1,72.768c0.385,0,0.615,0.23,0.615,0.615c0,0.251-0.219,0.613-0.615,0.613
			c-0.27,0-0.615-0.344-0.615-0.613C49.484,73.021,49.809,72.768,50.1,72.768 M55.558,73.107c0.291,0,0.616,0.253,0.616,0.615
			c0,0.271-0.346,0.615-0.616,0.615c-0.361,0-0.612-0.324-0.612-0.615C54.945,73.343,55.18,73.107,55.558,73.107 M44.641,73.107
			c0.379,0,0.615,0.235,0.615,0.615s-0.236,0.615-0.615,0.615c-0.38,0-0.616-0.235-0.616-0.615
			C44.025,73.338,44.255,73.107,44.641,73.107 M50.1,76.521c0.61,0,1.07,0.46,1.07,1.07c0,0.608-0.46,1.066-1.07,1.066
			c-0.609,0-1.069-0.458-1.069-1.066C49.031,76.981,49.49,76.521,50.1,76.521 M59.996,77.201c0.385,0,0.615,0.23,0.615,0.615
			s-0.23,0.615-0.615,0.615s-0.615-0.23-0.615-0.615S59.611,77.201,59.996,77.201 M40.43,77.201c0.386,0,0.616,0.23,0.616,0.615
			s-0.23,0.615-0.616,0.615c-0.384,0-0.614-0.23-0.614-0.615S40.045,77.201,40.43,77.201 M54.877,78.453c0.61,0,1.07,0.46,1.07,1.07
			c0,0.609-0.46,1.068-1.07,1.068c-0.609,0-1.069-0.459-1.069-1.069c-0.001-0.294,0.107-0.564,0.305-0.762
			C54.311,78.562,54.582,78.453,54.877,78.453 M45.323,78.453c0.61,0,1.07,0.461,1.07,1.072c0,0.609-0.46,1.068-1.07,1.068
			s-1.07-0.459-1.07-1.068C44.253,78.914,44.713,78.453,45.323,78.453 M50.1,81.184c0.61,0,1.07,0.459,1.07,1.068
			c0,0.611-0.46,1.072-1.07,1.072c-0.609,0-1.069-0.461-1.069-1.072C49.031,81.643,49.49,81.184,50.1,81.184 M61.814,81.523
			c0.38,0,0.615,0.236,0.615,0.617c0,0.38-0.235,0.615-0.615,0.615s-0.615-0.235-0.615-0.615
			C61.199,81.76,61.435,81.523,61.814,81.523 M38.384,81.523c0.379,0,0.615,0.236,0.615,0.617c0,0.38-0.236,0.615-0.615,0.615
			s-0.615-0.235-0.615-0.615C37.769,81.76,38.005,81.523,38.384,81.523 M54.876,83.914c0.609,0,1.069,0.459,1.069,1.068
			c0,0.61-0.46,1.07-1.069,1.07c-0.61,0-1.07-0.46-1.07-1.07C53.806,84.373,54.266,83.914,54.876,83.914 M45.323,83.914
			c0.61,0,1.07,0.459,1.07,1.068c0,0.61-0.46,1.07-1.07,1.07s-1.07-0.46-1.07-1.07C44.253,84.373,44.713,83.914,45.323,83.914
			 M50.1,85.961c0.61,0,1.07,0.459,1.07,1.068c0,0.61-0.46,1.07-1.07,1.07c-0.609,0-1.069-0.459-1.069-1.068
			C49.031,86.421,49.49,85.961,50.1,85.961 M59.54,86.529c0.385,0,0.615,0.23,0.615,0.615c0,0.29-0.253,0.613-0.615,0.613
			c-0.271,0-0.615-0.344-0.615-0.613C58.925,86.782,59.249,86.529,59.54,86.529 M40.66,86.529c0.385,0,0.615,0.23,0.615,0.614
			c0,0.29-0.253,0.614-0.615,0.614c-0.363,0-0.616-0.323-0.616-0.613C40.043,86.76,40.274,86.529,40.66,86.529 M55.558,89.713
			c0.396,0,0.616,0.364,0.616,0.615c0,0.385-0.23,0.615-0.616,0.615c-0.29,0-0.612-0.253-0.612-0.615
			C54.945,90.058,55.289,89.713,55.558,89.713 M44.641,89.713c0.379,0,0.615,0.235,0.615,0.615s-0.236,0.615-0.615,0.615
			c-0.292,0-0.616-0.253-0.616-0.615S44.35,89.713,44.641,89.713 M50.1,90.51c0.291,0,0.615,0.253,0.615,0.615
			c0,0.271-0.345,0.615-0.615,0.615c-0.363,0-0.615-0.324-0.615-0.615C49.484,90.745,49.72,90.51,50.1,90.51 M51.613,7.042
			c0.574,0.399,1.027,0.919,1.324,1.634l0.077,0.182h0.505l0.065-0.205c0.162-0.506,0.413-0.997,0.903-1.417
			C53.539,7.136,52.579,7.077,51.613,7.042L51.613,7.042z M35.292,9.584h0.005H35.292z M35.292,9.584
			c-2.605,0.948-5.092,2.143-7.435,3.553h7.312V10.76C35.169,10.338,35.21,9.946,35.292,9.584L35.292,9.584z M64.826,9.626v1.029
			h-3.335c-2.932,0-4.523,0.389-4.523,2.445v8.545h7.858v0.44c0.021,0.001,0.04,0.002,0.06,0.002
			c0.598,1.158,1.343,4.021,2.018,7.445l7.487-9.54l0.062-0.079v-0.463H63.155v-6.313h8.988C69.836,11.749,67.39,10.568,64.826,9.626
			L64.826,9.626z M46.573,10.443H45.57c-2.601,0-3.479,0.682-3.479,2.706v8.497h7.957v-8.969
			C50.048,10.696,48.191,10.443,46.573,10.443L46.573,10.443z M35.171,19.452H23.958v5.91h10.316
			c0.318-1.257,0.625-2.277,0.896-2.948V19.452L35.171,19.452z M80.876,20.089L69.645,34.432v0.462H81.5v6.314H68.587
			c0.106,1.296,0.167,2.488,0.167,3.504v8.94l-10.008,9.711c-2.049-1.213-6.257-2.315-8.646-2.315c-2.275,0-6.484,1.103-8.645,2.315
			l-10.01-9.711v-8.94c0-3.353,0.687-8.612,1.537-13.274h-9.023v9.771H18.5V20.743C11.368,28.418,7,38.697,7,50
			c0,20.699,14.63,37.98,34.113,42.075c-3.717-2.106-6.598-5.483-6.598-9.823c0-7.619,8.874-12.283,15.584-12.283
			c6.713,0,15.584,4.664,15.584,12.283c0,4.282-2.801,7.63-6.445,9.742C78.543,87.765,93,70.573,93,50
			C93,38.372,88.376,27.83,80.876,20.089L80.876,20.089z M41.719,69.59l-0.178-0.154l1.861-4.578c2.037-0.775,4.34-1.395,6.554-1.395
			c2.213,0,4.518,0.619,6.554,1.395l1.949,4.578l-0.177,0.154c-2.215-1.24-5.403-2.172-8.327-2.172
			C47.033,67.418,43.844,68.35,41.719,69.59L41.719,69.59z M57.238,30.032c-3.412,0-5.687,5.687-5.687,8.758
			c0,3.072,2.274,8.759,5.687,8.759c3.041,0,5.175-4.513,5.604-7.67v-2.178C62.413,34.544,60.279,30.032,57.238,30.032L57.238,30.032
			z M42.961,30.032c-3.413,0-5.688,5.687-5.688,8.758c0,3.072,2.275,8.759,5.688,8.759s5.688-5.687,5.688-8.759
			C48.649,35.719,46.374,30.032,42.961,30.032L42.961,30.032z M50.1,72.018c-0.682,0-1.365,0.568-1.365,1.365
			c0,0.682,0.684,1.363,1.365,1.363c0.796,0,1.365-0.684,1.365-1.363C51.465,72.586,50.896,72.018,50.1,72.018L50.1,72.018z
			 M55.558,72.357c-0.794,0-1.362,0.568-1.362,1.365c0,0.684,0.568,1.365,1.362,1.365c0.684,0,1.366-0.684,1.366-1.365
			C56.924,72.926,56.24,72.357,55.558,72.357L55.558,72.357z M44.641,72.357c-0.798,0-1.366,0.568-1.366,1.365
			c0,0.795,0.569,1.365,1.366,1.365c0.795,0,1.365-0.57,1.365-1.365C46.006,72.926,45.437,72.357,44.641,72.357L44.641,72.357z
			 M50.1,75.771c-1.023,0-1.819,0.795-1.819,1.82c0,1.021,0.795,1.816,1.819,1.816c1.024,0,1.82-0.795,1.82-1.816
			C51.92,76.566,51.124,75.771,50.1,75.771L50.1,75.771z M59.996,76.451c-0.797,0-1.365,0.568-1.365,1.365s0.568,1.365,1.365,1.365
			s1.365-0.568,1.365-1.365S60.793,76.451,59.996,76.451L59.996,76.451z M40.43,76.451c-0.795,0-1.364,0.568-1.364,1.365
			s0.568,1.365,1.364,1.365c0.798,0,1.366-0.568,1.366-1.365S41.228,76.451,40.43,76.451L40.43,76.451z M54.877,77.703
			c-1.022,0-1.821,0.797-1.819,1.82c0,1.023,0.797,1.818,1.819,1.818c1.023,0,1.82-0.795,1.82-1.818S55.902,77.703,54.877,77.703
			L54.877,77.703z M45.323,77.703c-1.023,0-1.82,0.797-1.82,1.822c0,1.021,0.796,1.818,1.82,1.818s1.82-0.797,1.82-1.818
			C47.143,78.5,46.346,77.703,45.323,77.703L45.323,77.703z M50.1,80.434c-1.023,0-1.819,0.797-1.819,1.818
			c0,1.023,0.795,1.822,1.819,1.822c1.024,0,1.82-0.799,1.82-1.822C51.92,81.23,51.124,80.434,50.1,80.434L50.1,80.434z
			 M61.814,80.773c-0.796,0-1.365,0.57-1.365,1.367c0,0.795,0.569,1.365,1.365,1.365c0.797,0,1.365-0.57,1.365-1.365
			C63.18,81.344,62.611,80.773,61.814,80.773L61.814,80.773z M38.384,80.773c-0.796,0-1.365,0.57-1.365,1.367
			c0,0.793,0.569,1.365,1.365,1.365c0.795,0,1.365-0.57,1.365-1.365C39.75,81.344,39.18,80.773,38.384,80.773L38.384,80.773z
			 M54.876,83.164c-1.021,0-1.82,0.795-1.82,1.818s0.799,1.82,1.82,1.82c1.024,0,1.819-0.795,1.819-1.82
			C56.695,83.959,55.9,83.164,54.876,83.164L54.876,83.164z M45.323,83.164c-1.023,0-1.82,0.795-1.82,1.818s0.796,1.82,1.82,1.82
			s1.82-0.797,1.82-1.82S46.346,83.164,45.323,83.164L45.323,83.164z M50.1,85.211c-1.023,0-1.819,0.797-1.819,1.82
			s0.795,1.818,1.819,1.818c1.024,0,1.82-0.795,1.82-1.82C51.92,86.006,51.124,85.211,50.1,85.211L50.1,85.211z M59.54,85.779
			c-0.684,0-1.365,0.566-1.365,1.365c0,0.682,0.683,1.363,1.365,1.363c0.797,0,1.365-0.682,1.365-1.363
			C60.905,86.346,60.337,85.779,59.54,85.779L59.54,85.779z M40.66,85.779c-0.797,0-1.366,0.566-1.366,1.365
			c0,0.682,0.569,1.363,1.366,1.363c0.795,0,1.364-0.682,1.365-1.363C42.025,86.346,41.457,85.779,40.66,85.779L40.66,85.779z
			 M55.558,88.963c-0.682,0-1.362,0.684-1.362,1.365c0,0.797,0.682,1.365,1.362,1.365c0.798,0,1.366-0.568,1.366-1.365
			C56.924,89.646,56.355,88.963,55.558,88.963L55.558,88.963z M44.641,88.963c-0.684,0-1.366,0.568-1.366,1.365
			s0.684,1.365,1.366,1.365c0.794,0,1.365-0.568,1.365-1.365S45.437,88.963,44.641,88.963L44.641,88.963z M50.1,89.76
			c-0.795,0-1.365,0.568-1.365,1.365c0,0.684,0.57,1.365,1.365,1.365c0.682,0,1.365-0.682,1.365-1.365
			C51.465,90.328,50.781,89.76,50.1,89.76L50.1,89.76z"/>
	
	</g>

</svg>
