<svg xmlns="http://www.w3.org/2000/svg" viewBox="0 0 100 100">
	
	<style>
		<!-- freezer - thin line style -->
		.white {fill:white;}
		.black {fill:black;}
		.gray {fill:#ddd;}
		.stroke-black {fill:none;stroke:#000000;stroke-width:0.75;stroke-miterlimit:10;stroke-linecap:round;stroke-linejoin:round;}
		.stroke-black-thin {fill:none;stroke:#000000;stroke-width:0.645;stroke-miterlimit:10;stroke-linecap:round;stroke-linejoin:round;}
	</style>


	<g class="freezer-she-up">

		<circle id="bg" class="gray" cx="50" cy="50" r="49"/>

		<path d="M50,7.75c23.297,0,42.25,18.953,42.25,42.25c0,2.733-0.267,5.461-0.796,8.149c-0.017-0.02-0.034-0.039-0.052-0.058
		l-0.074-0.076c-0.132-0.137-0.269-0.277-0.463-0.396c-0.133-0.079-0.273-0.142-0.42-0.188c0.07-0.086,0.135-0.178,0.191-0.273
		c0.47-0.768,0.409-1.665-0.16-2.407c-0.216-0.321-0.499-0.493-0.657-0.588c-0.317-0.189-0.675-0.297-1.038-0.313
		c0.454-0.844,0.368-1.812-0.241-2.614c-0.235-0.309-0.458-0.515-0.747-0.691c-0.344-0.207-0.743-0.316-1.154-0.316
		c-0.136,0-0.271,0.011-0.403,0.033c0.874-1.749,0.979-3.908-0.537-4.82c-0.351-0.211-0.742-0.318-1.166-0.318
		c-1.493,0-2.954,1.32-3.74,2.627c-0.652,1.084-0.885,2.188-0.656,3.105c0.111,0.444,0.328,0.84,0.645,1.175
		c-0.126-0.015-0.251-0.021-0.376-0.021c-0.902,0-1.722,0.396-2.38,1.159c-0.483,0.589-0.868,1.126-1.176,1.64
		c-1.587,2.637-0.903,4.455-0.301,6.059c0.562,1.495,1.047,2.787-0.19,4.846c-0.837,1.279-1.478,1.538-2.364,1.896
		c-1.259,0.507-2.826,1.139-5.008,4.771c-3.265,5.699-1.255,7.732-0.24,8.342c0.627,0.377,1.396,0.568,2.284,0.568
		c2.714,0,5.917-1.766,7.602-4.179L78.714,77c0.402-0.537,1.47-1.961,2.247-3.26c0.291-0.481,0.592-0.979,0.753-1.447
		c0.945-1.507,3.083-2.896,4.806-4.015c0.539-0.351,1.049-0.683,1.469-0.979c0.275-0.177,0.542-0.451,0.716-0.737
		c0.345-0.572,0.505-1.311,0.479-2.206c0.034,0.024,0.071,0.049,0.109,0.072c0.113,0.068,0.232,0.124,0.355,0.167
		C83.546,81.179,67.739,92.25,50,92.25c-17.74,0-33.546-11.07-39.647-27.653c0.125-0.044,0.247-0.102,0.363-0.171
		c0.035-0.021,0.068-0.044,0.101-0.067c-0.022,0.812,0.106,1.581,0.48,2.203c0.175,0.292,0.437,0.562,0.688,0.721
		c0.452,0.318,0.962,0.649,1.502,1.001c1.72,1.117,3.854,2.505,4.799,4.01c0.16,0.465,0.458,0.959,0.75,1.445
		c0.786,1.311,1.857,2.738,2.26,3.275l0.058,0.077c1.698,2.432,4.901,4.197,7.616,4.197c0.889,0,1.657-0.191,2.284-0.568
		c1.015-0.609,3.025-2.643-0.246-8.355c-2.175-3.618-3.742-4.25-5-4.757c-0.887-0.357-1.527-0.616-2.35-1.872
		c-1.252-2.082-0.767-3.374-0.205-4.869c0.603-1.604,1.286-3.422-0.3-6.058c-0.307-0.511-0.681-1.032-1.189-1.654
		c-0.646-0.75-1.465-1.146-2.368-1.146c-0.124,0-0.248,0.007-0.373,0.021c0.312-0.333,0.531-0.729,0.642-1.175
		c0.229-0.918-0.004-2.021-0.656-3.104c-0.786-1.308-2.248-2.627-3.741-2.627c-0.423,0-0.815,0.107-1.165,0.318
		c-1.517,0.912-1.413,3.068-0.539,4.819c-0.133-0.022-0.268-0.033-0.403-0.033c-0.411,0-0.811,0.109-1.155,0.317
		c-0.286,0.173-0.509,0.379-0.749,0.692c-0.609,0.803-0.694,1.771-0.237,2.613c-0.364,0.017-0.722,0.124-1.042,0.315
		c-0.154,0.093-0.437,0.264-0.654,0.587c-0.563,0.738-0.625,1.634-0.162,2.403c0.058,0.097,0.123,0.188,0.192,0.274
		c-0.146,0.046-0.288,0.109-0.42,0.189C8.94,57.738,8.8,57.884,8.665,58.024l-0.065,0.067c-0.019,0.02-0.036,0.039-0.053,0.061
		C8.017,55.465,7.75,52.735,7.75,50C7.75,26.704,26.703,7.75,50,7.75 M56.793,68.218c-0.039,0.003-0.078,0.007-0.12,0.012
		c-2.28,0.331-3.481,2.421-3.061,5.324c0.367,2.529,1.963,5.218,4.195,5.218c0.128,0,0.258-0.01,0.388-0.028
		c1.131-0.164,2.032-0.984,2.537-2.312c0.401-1.055,0.53-2.392,0.355-3.678c0.522,0.475,1.197,0.786,1.969,0.786
		c0.127,0,0.256-0.009,0.387-0.027c0.503-0.073,0.87-0.252,1.198-0.438c1.12-0.65,1.682-1.779,1.502-3.018
		c-0.016-0.105-0.035-0.21-0.061-0.312c0.407,0.234,0.872,0.368,1.358,0.368c0.128,0,0.258-0.009,0.401-0.029
		c0.236-0.036,0.629-0.096,1.014-0.351c0.992-0.571,1.488-1.557,1.326-2.636c-0.041-0.285-0.12-0.558-0.232-0.811
		c0.202,0.059,0.417,0.09,0.642,0.09c0.108,0,0.218-0.007,0.342-0.024c0.253-0.04,0.471-0.133,0.681-0.223l0.152-0.064
		c0.031-0.013,0.061-0.027,0.09-0.044c0.884-0.51,1.326-1.387,1.184-2.341c-0.059-0.407-0.228-0.82-0.484-1.18
		c0.131,0.023,0.267,0.035,0.405,0.035c0.111,0,0.226-0.008,0.336-0.023c0.261-0.036,0.481-0.131,0.694-0.222l0.15-0.063
		c0.03-0.012,0.061-0.026,0.089-0.043c0.885-0.51,1.327-1.387,1.185-2.344c-0.161-1.109-1.137-2.257-2.49-2.257
		c-0.11,0-0.223,0.008-0.344,0.025c-0.252,0.038-0.467,0.129-0.675,0.217l-0.059,0.025c0.675-1.271,0.969-2.438,0.827-3.411
		c-0.063-0.42-0.231-0.851-0.44-1.149c-0.391-0.623-0.848-1.294-1.33-2.004c-1.572-2.311-3.524-5.181-3.908-7.6
		c0.044-0.622-0.062-1.366-0.165-2.087l-0.01-0.066c-0.285-1.958-0.835-4.175-1.07-5.123l-0.053-0.215
		c-1.053-4.875-5.642-9.484-9.441-9.484c-0.22,0-0.438,0.016-0.649,0.046c-1.496,0.218-4.863,1.646-3.817,10.184
		c0.803,5.521,2.314,7.019,3.647,8.34c0.91,0.902,1.629,1.614,2.011,3.688c0.486,3.351-0.825,4.74-2.343,6.347
		c-1.54,1.631-3.285,3.479-2.71,7.443c0.108,0.768,0.298,1.596,0.601,2.626C53.564,67.138,54.908,68.135,56.793,68.218
		 M33.004,43.689c-0.385,2.417-2.336,5.286-3.908,7.596c-0.483,0.711-0.94,1.383-1.312,1.977c-0.231,0.331-0.399,0.761-0.462,1.184
		c-0.147,1.016,0.162,2.18,0.796,3.392l-0.021-0.009c-0.209-0.089-0.426-0.181-0.687-0.22c-0.114-0.017-0.226-0.024-0.336-0.024
		c-1.352,0-2.328,1.147-2.49,2.256c-0.141,0.958,0.303,1.835,1.185,2.344c0.03,0.018,0.06,0.032,0.092,0.045l0.154,0.064
		c0.211,0.091,0.431,0.184,0.684,0.219c0.116,0.017,0.23,0.024,0.342,0.024c0.139,0,0.273-0.012,0.404-0.034
		c-0.256,0.358-0.424,0.771-0.483,1.177c-0.142,0.957,0.301,1.833,1.184,2.343c0.029,0.017,0.059,0.031,0.089,0.044l0.151,0.064
		c0.21,0.09,0.428,0.183,0.694,0.225c0.111,0.016,0.221,0.022,0.329,0.022c0.224,0,0.438-0.031,0.64-0.089
		c-0.111,0.251-0.19,0.521-0.23,0.806c-0.162,1.083,0.334,2.067,1.326,2.64c0.384,0.255,0.776,0.314,1.024,0.352
		c0.133,0.02,0.264,0.028,0.393,0.028c0.485,0,0.949-0.133,1.356-0.368c-0.025,0.103-0.045,0.207-0.061,0.312
		c-0.18,1.24,0.381,2.368,1.507,3.021c0.436,0.248,0.78,0.374,1.192,0.435c0.13,0.019,0.258,0.027,0.385,0.027
		c0.72,0,1.419-0.307,1.973-0.806c-0.179,1.293-0.051,2.638,0.353,3.697c0.505,1.327,1.406,2.147,2.535,2.312
		c0.131,0.02,0.262,0.028,0.391,0.028c2.232,0,3.827-2.688,4.195-5.218c0.186-1.277,0.06-2.434-0.364-3.342
		c-0.52-1.117-1.452-1.802-2.721-1.985c-0.028-0.004-0.057-0.006-0.085-0.009c1.878-0.088,3.217-1.085,3.791-2.849
		c0.292-0.993,0.481-1.821,0.595-2.604c0.576-3.967-1.169-5.814-2.709-7.445c-1.519-1.607-2.83-2.996-2.348-6.32
		c0.386-2.102,1.105-2.814,2.016-3.716c1.333-1.321,2.844-2.818,3.65-8.356c1.046-8.523-2.324-9.95-3.822-10.167
		c-0.21-0.03-0.428-0.046-0.648-0.046c-3.799,0-8.388,4.609-9.437,9.464l-0.06,0.24c-0.235,0.947-0.787,3.164-1.069,5.119
		l-0.007,0.05C33.066,42.312,32.958,43.062,33.004,43.689 M83.981,52.642c-0.036,0.563,0.14,1.135,0.522,1.642
		c0.237,0.309,0.46,0.515,0.747,0.688c0.345,0.207,0.744,0.316,1.156,0.316c0.026,0,0.054,0,0.08-0.001
		c-0.232,0.527-0.234,1.098-0.012,1.627c-1.028-1.638-2.268-3.107-3.563-4.002C83.274,52.894,83.634,52.802,83.981,52.642
		 M16.021,52.642c0.348,0.16,0.707,0.252,1.069,0.271c-1.209,0.839-2.465,2.255-3.552,3.974c0.21-0.521,0.205-1.08-0.024-1.599
		c0.027,0.001,0.054,0.001,0.082,0.001c0.412,0,0.811-0.109,1.161-0.319c0.352-0.216,0.57-0.467,0.743-0.689
		C15.881,53.775,16.057,53.205,16.021,52.642 M86.851,57.534c0.198,0.257,0.434,0.399,0.589,0.493
		c0.204,0.123,0.425,0.211,0.652,0.264c-0.024,0.036-0.049,0.073-0.072,0.111c-0.161,0.269-0.252,0.556-0.271,0.847
		C87.479,58.674,87.178,58.098,86.851,57.534 M13.125,57.566c-0.311,0.536-0.603,1.095-0.873,1.671
		c-0.021-0.287-0.111-0.571-0.27-0.838c-0.023-0.037-0.046-0.073-0.071-0.109c0.23-0.053,0.456-0.145,0.67-0.273
		C12.72,57.932,12.936,57.799,13.125,57.566 M70.447,59.959c0.001,0.106,0.009,0.214,0.024,0.322
		c0.061,0.406,0.23,0.817,0.486,1.175c-0.131-0.023-0.267-0.035-0.406-0.035c-0.11,0-0.223,0.008-0.343,0.025
		c-0.256,0.038-0.475,0.132-0.685,0.222l-0.152,0.064c-0.03,0.012-0.06,0.026-0.088,0.043c-0.881,0.506-1.325,1.38-1.188,2.342
		c0.028,0.193,0.082,0.389,0.157,0.578c-0.281-0.099-0.58-0.152-0.889-0.152c-0.13,0-0.264,0.01-0.389,0.028
		c-0.224,0.029-0.636,0.083-1.036,0.353c-0.988,0.571-1.483,1.553-1.326,2.633c0.007,0.046,0.015,0.091,0.023,0.136
		c-0.476-0.315-1.021-0.501-1.581-0.501c-0.127,0-0.256,0.01-0.382,0.027c-0.514,0.072-0.881,0.254-1.198,0.439
		c-0.839,0.482-1.366,1.232-1.506,2.098c-0.661-0.907-1.558-1.459-2.588-1.542c0.218-0.011,0.442-0.033,0.671-0.066
		c2.798-0.405,6.531-2.468,9.743-5.384C68.832,61.824,69.722,60.88,70.447,59.959 M29.553,60.007
		c3.035,3.845,8.491,7.576,12.394,8.143c0.225,0.032,0.446,0.055,0.662,0.065c-1.026,0.086-1.919,0.638-2.58,1.544
		c-0.138-0.866-0.665-1.616-1.501-2.099c-0.437-0.255-0.785-0.383-1.198-0.44c-0.13-0.019-0.259-0.028-0.386-0.028
		c-0.558,0-1.104,0.185-1.578,0.5c0.009-0.045,0.017-0.091,0.023-0.137c0.155-1.079-0.341-2.061-1.327-2.631
		c-0.4-0.27-0.812-0.323-1.026-0.352c-0.136-0.02-0.269-0.029-0.399-0.029c-0.308,0-0.607,0.054-0.888,0.152
		c0.076-0.19,0.129-0.387,0.158-0.581c0.137-0.96-0.307-1.834-1.188-2.339c-0.029-0.017-0.059-0.031-0.089-0.044l-0.157-0.066
		c-0.209-0.089-0.425-0.181-0.685-0.22c-0.114-0.017-0.227-0.024-0.337-0.024c-0.139,0-0.274,0.012-0.405,0.035
		c0.256-0.358,0.425-0.771,0.485-1.179C29.542,60.187,29.55,60.096,29.553,60.007 M88.403,60.814
		c0.104,0.104,0.219,0.206,0.365,0.295c0.065,0.039,0.133,0.074,0.201,0.105c-0.115,0.102-0.221,0.215-0.313,0.34
		C88.58,61.312,88.496,61.064,88.403,60.814 M11.594,60.819c-0.085,0.233-0.17,0.479-0.25,0.732
		c-0.092-0.123-0.196-0.236-0.311-0.337c0.069-0.031,0.136-0.066,0.2-0.105C11.377,61.023,11.49,60.922,11.594,60.819 M50,7
		C26.252,7,7,26.253,7,50c0,4.119,0.591,8.097,1.673,11.869c0.115-0.119,0.213-0.223,0.324-0.288c0.196-0.118,0.406-0.17,0.612-0.17
		c0.489,0,0.962,0.293,1.207,0.696c0.238,0.396,0.23,0.882-0.105,1.324c-0.149,0.149-0.256,0.274-0.387,0.354
		c-0.196,0.117-0.405,0.169-0.61,0.169c-0.139,0-0.276-0.023-0.408-0.066C15.083,80.817,31.114,93,50,93
		c18.884,0,34.915-12.182,40.693-29.11c-0.131,0.042-0.268,0.065-0.406,0.065c-0.205,0-0.413-0.052-0.608-0.169
		c-0.133-0.08-0.24-0.205-0.389-0.354c-0.333-0.441-0.342-0.928-0.104-1.324c0.244-0.404,0.717-0.697,1.206-0.697
		c0.206,0,0.415,0.052,0.61,0.17c0.113,0.068,0.211,0.171,0.324,0.288C92.408,58.098,93,54.119,93,50C93,26.253,73.746,7,50,7L50,7z
		 M57.049,67.473c-1.567,0-2.808-0.681-3.34-2.317c-0.274-0.936-0.464-1.744-0.571-2.5c-1.052-7.25,6.125-6.406,5.053-13.793
		c-1-5.441-4.315-2.797-5.658-12.028c-0.773-6.314,0.861-8.995,3.184-9.334c0.177-0.025,0.357-0.038,0.541-0.038
		c3.365,0,7.696,4.205,8.708,8.892c0.165,0.675,0.806,3.166,1.114,5.287c0.107,0.753,0.219,1.504,0.162,2.071
		c0.484,3.351,3.631,7.224,5.357,9.977c0.178,0.255,0.293,0.588,0.334,0.862c0.598,4.103-8.309,12.031-13.986,12.854
		C57.638,67.45,57.338,67.473,57.049,67.473L57.049,67.473z M42.946,67.474c-0.288,0-0.586-0.022-0.893-0.066
		c-5.678-0.824-14.583-8.75-13.988-12.854c0.041-0.275,0.157-0.607,0.335-0.862c1.726-2.753,4.873-6.626,5.359-9.977
		c-0.058-0.567,0.053-1.318,0.161-2.071c0.307-2.121,0.95-4.613,1.115-5.287c1.014-4.687,5.346-8.892,8.708-8.892
		c0.184,0,0.363,0.013,0.541,0.038c2.324,0.338,3.96,3.019,3.185,9.334c-1.343,9.231-4.659,6.587-5.659,12.028
		c-1.072,7.388,6.106,6.544,5.053,13.794c-0.109,0.754-0.296,1.562-0.572,2.5C45.759,66.793,44.516,67.474,42.946,67.474
		L42.946,67.474z M82.777,52.165c-0.318,0-0.643-0.08-0.966-0.261c-1.369-0.82-1.199-2.4-0.377-3.768
		c0.741-1.233,2.01-2.264,3.098-2.264c0.275,0,0.539,0.066,0.779,0.211c1.189,0.716,0.939,2.729,0.041,4.229
		C84.726,51.352,83.785,52.165,82.777,52.165L82.777,52.165z M17.225,52.165c-1.008,0-1.949-0.813-2.576-1.853
		c-0.899-1.501-1.149-3.513,0.042-4.229c0.24-0.145,0.504-0.211,0.779-0.211c1.088,0,2.357,1.03,3.098,2.264
		c0.822,1.367,0.991,2.947-0.377,3.768C17.868,52.085,17.543,52.165,17.225,52.165L17.225,52.165z M13.595,54.538
		c-0.66,0-1.328-0.4-1.669-0.968c-0.319-0.527-0.372-1.217,0.131-1.88c0.168-0.22,0.318-0.37,0.539-0.504
		c0.24-0.145,0.503-0.209,0.767-0.209c0.66,0,1.329,0.4,1.669,0.967c0.319,0.529,0.372,1.22-0.13,1.882
		c-0.168,0.217-0.318,0.368-0.538,0.503C14.124,54.474,13.86,54.538,13.595,54.538L13.595,54.538z M86.407,54.538
		c-0.266,0-0.529-0.064-0.77-0.209c-0.221-0.134-0.371-0.284-0.539-0.503c-0.5-0.662-0.447-1.353-0.129-1.881
		c0.341-0.566,1.01-0.967,1.669-0.967c0.265,0,0.527,0.064,0.768,0.209c0.221,0.135,0.37,0.284,0.538,0.504
		c0.503,0.663,0.449,1.354,0.132,1.881C87.734,54.139,87.065,54.538,86.407,54.538L86.407,54.538z M71.029,80.538
		c-0.722,0-1.375-0.146-1.897-0.461c-1.502-0.901-1.851-3.216,0.504-7.326c3.578-5.955,5.096-3.183,7.35-6.629
		c2.865-4.765-2.307-6.254,0.506-10.928c0.291-0.486,0.652-0.989,1.113-1.551c0.53-0.614,1.146-0.885,1.8-0.885
		c0.567,0,1.163,0.203,1.757,0.561c3.662,2.2,7.494,10.21,5.9,12.856c-0.107,0.177-0.287,0.37-0.479,0.493
		c-1.98,1.394-5.256,3.146-6.555,5.308c-0.123,0.405-0.415,0.89-0.709,1.376c-0.82,1.37-1.979,2.893-2.289,3.309
		C76.386,79.016,73.354,80.538,71.029,80.538L71.029,80.538z M28.972,80.538c-2.325,0-5.357-1.522-7.001-3.877
		c-0.311-0.416-1.469-1.94-2.29-3.309c-0.293-0.486-0.585-0.97-0.708-1.376c-1.3-2.162-4.577-3.914-6.555-5.308
		c-0.194-0.123-0.371-0.316-0.477-0.493c-1.593-2.646,2.239-10.656,5.9-12.856c0.594-0.357,1.19-0.561,1.757-0.561
		c0.654,0,1.27,0.27,1.8,0.885c0.46,0.563,0.822,1.064,1.114,1.551c2.813,4.674-2.359,6.163,0.506,10.928
		c2.254,3.446,3.77,0.674,7.35,6.629c2.353,4.11,2.003,6.425,0.502,7.326C30.347,80.391,29.693,80.538,28.972,80.538L28.972,80.538z
		 M88.578,57.596c-0.253,0-0.51-0.065-0.752-0.211c-0.134-0.081-0.312-0.187-0.433-0.382c-0.441-0.562-0.398-1.139-0.133-1.58
		c0.294-0.489,0.845-0.825,1.421-0.825c0.253,0,0.51,0.065,0.753,0.21c0.131,0.079,0.309,0.188,0.432,0.381
		c0.443,0.562,0.4,1.139,0.131,1.58C89.702,57.259,89.152,57.596,88.578,57.596L88.578,57.596z M11.425,57.596
		c-0.574,0-1.124-0.337-1.419-0.827c-0.266-0.441-0.31-1.018,0.131-1.58c0.123-0.193,0.3-0.302,0.431-0.381
		c0.243-0.145,0.5-0.21,0.753-0.21c0.575,0,1.125,0.335,1.42,0.825c0.265,0.441,0.309,1.018-0.133,1.58
		c-0.121,0.195-0.299,0.301-0.431,0.382C11.935,57.53,11.678,57.596,11.425,57.596L11.425,57.596z M10.237,60.637
		c-0.49,0-0.963-0.295-1.207-0.697c-0.239-0.397-0.23-0.881,0.105-1.323c0.149-0.152,0.255-0.273,0.388-0.354
		c0.195-0.118,0.404-0.17,0.61-0.17c0.49,0,0.964,0.294,1.208,0.695c0.238,0.398,0.23,0.883-0.104,1.323
		c-0.15,0.152-0.257,0.275-0.389,0.354C10.652,60.585,10.443,60.637,10.237,60.637L10.237,60.637z M89.767,60.637
		c-0.206,0-0.415-0.052-0.61-0.17c-0.134-0.081-0.241-0.204-0.392-0.354c-0.334-0.441-0.342-0.926-0.103-1.322
		c0.242-0.402,0.717-0.695,1.207-0.695c0.206,0,0.415,0.052,0.61,0.169c0.134,0.081,0.24,0.204,0.389,0.354
		c0.334,0.441,0.343,0.926,0.104,1.322C90.729,60.343,90.256,60.637,89.767,60.637L89.767,60.637z M72.961,61.786
		c-0.915,0-1.624-0.792-1.747-1.615c-0.088-0.613,0.172-1.211,0.817-1.584c0.265-0.107,0.458-0.205,0.663-0.236
		c0.078-0.011,0.155-0.017,0.23-0.017c0.919,0,1.629,0.794,1.748,1.614c0.092,0.616-0.172,1.215-0.816,1.586
		c-0.262,0.107-0.457,0.207-0.662,0.235C73.115,61.781,73.037,61.786,72.961,61.786L72.961,61.786z M27.042,61.786
		c-0.077,0-0.154-0.005-0.233-0.017c-0.205-0.028-0.4-0.128-0.663-0.235c-0.643-0.371-0.908-0.97-0.818-1.586
		c0.12-0.82,0.83-1.614,1.748-1.614c0.076,0,0.152,0.006,0.23,0.017c0.206,0.031,0.4,0.129,0.664,0.236
		c0.645,0.373,0.906,0.971,0.818,1.584C28.667,60.994,27.956,61.786,27.042,61.786L27.042,61.786z M70.592,65.627
		c-0.918,0-1.632-0.795-1.753-1.619c-0.088-0.615,0.174-1.212,0.818-1.582c0.264-0.108,0.458-0.207,0.664-0.238
		c0.078-0.012,0.155-0.017,0.23-0.017c0.916,0,1.627,0.794,1.746,1.617c0.092,0.614-0.17,1.211-0.816,1.584
		c-0.264,0.108-0.459,0.207-0.664,0.239C70.741,65.622,70.666,65.627,70.592,65.627L70.592,65.627z M29.41,65.627
		c-0.074,0-0.149-0.005-0.225-0.016c-0.206-0.032-0.401-0.131-0.664-0.239c-0.646-0.373-0.908-0.97-0.817-1.584
		c0.119-0.822,0.831-1.617,1.746-1.617c0.076,0,0.152,0.005,0.23,0.017c0.207,0.031,0.4,0.13,0.665,0.238
		c0.645,0.37,0.906,0.967,0.818,1.582C31.043,64.832,30.328,65.627,29.41,65.627L29.41,65.627z M67.441,69.363
		c-1.092,0-1.938-0.907-2.085-1.915c-0.1-0.685,0.146-1.416,0.982-1.889c0.256-0.18,0.527-0.218,0.735-0.245
		c0.099-0.015,0.196-0.021,0.291-0.021c1.093,0,1.932,0.906,2.075,1.911c0.103,0.686-0.142,1.42-0.98,1.892
		c-0.254,0.176-0.527,0.216-0.734,0.247C67.629,69.356,67.534,69.363,67.441,69.363L67.441,69.363z M32.562,69.363
		c-0.094,0-0.189-0.007-0.287-0.021c-0.206-0.031-0.48-0.071-0.734-0.247c-0.838-0.472-1.083-1.206-0.981-1.892
		c0.143-1.005,0.983-1.911,2.075-1.911c0.095,0,0.193,0.007,0.292,0.021c0.208,0.027,0.48,0.065,0.735,0.245
		c0.838,0.473,1.082,1.204,0.984,1.889C34.497,68.455,33.654,69.363,32.562,69.363L32.562,69.363z M63.057,72.791
		c-1.182,0-2.178-1.082-2.348-2.225c-0.119-0.821,0.172-1.7,1.142-2.259c0.322-0.188,0.584-0.298,0.928-0.346
		c0.094-0.014,0.187-0.021,0.278-0.021c1.181,0,2.18,1.083,2.345,2.224c0.119,0.821-0.172,1.701-1.137,2.262
		c-0.326,0.185-0.588,0.294-0.93,0.344C63.241,72.784,63.148,72.791,63.057,72.791L63.057,72.791z M36.942,72.791
		c-0.092,0-0.185-0.007-0.278-0.021c-0.34-0.05-0.604-0.159-0.927-0.344c-0.966-0.561-1.256-1.442-1.137-2.262
		c0.165-1.141,1.166-2.224,2.343-2.224c0.092,0,0.185,0.007,0.278,0.021c0.344,0.048,0.607,0.158,0.928,0.346
		c0.969,0.559,1.26,1.438,1.141,2.259C39.123,71.709,38.125,72.791,36.942,72.791L36.942,72.791z M57.808,78.021
		c-1.719,0-3.123-2.305-3.453-4.575c-0.308-2.123,0.305-4.167,2.426-4.475c0.112-0.013,0.223-0.019,0.329-0.019
		c1.86,0,2.936,1.827,3.226,3.833c0.338,2.325-0.398,4.947-2.247,5.215C57.994,78.015,57.9,78.021,57.808,78.021L57.808,78.021z
		 M42.194,78.021c-0.093,0-0.187-0.007-0.282-0.021c-1.848-0.268-2.585-2.89-2.247-5.215c0.292-2.006,1.369-3.833,3.228-3.833
		c0.107,0,0.217,0.006,0.329,0.019c2.121,0.308,2.733,2.352,2.425,4.475C45.317,75.716,43.913,78.021,42.194,78.021L42.194,78.021z
		 M90.693,63.89h0.005H90.693z"/>
	</g>		
</svg>
