<svg xmlns="http://www.w3.org/2000/svg" viewBox="0 0 100 100">
	
	<style>
		<!-- freezer - thin line style -->
		.white {fill:white;}
		.black {fill:black;}
		.gray {fill:#ddd;}
		.stroke-black {fill:none;stroke:#000000;stroke-width:0.75;stroke-miterlimit:10;stroke-linecap:round;stroke-linejoin:round;}
		.stroke-black-thin {fill:none;stroke:#000000;stroke-width:0.645;stroke-miterlimit:10;stroke-linecap:round;stroke-linejoin:round;}
	</style>


	<g class="freezer-rider">

		<circle id="bg" class="gray" cx="50" cy="50" r="49"/>

		<path class="stroke-black" d="M50.062,7C26.35,7,7.125,26.253,7.125,50c0,3.096,0.334,6.113,0.955,9.023
					c0.719-0.549,1.689-0.736,2.602-0.404l10.266,3.742l-3.665-2.906c-1.188-0.941-1.387-2.67-0.447-3.857
					c0.938-1.189,2.663-1.391,3.852-0.447l2.698,2.139c-0.099-0.314-0.198-0.623-0.293-0.924c-3.263-10.285-7.731-24.369-1.299-30.761
					c0,0,1.791-1.195,3.556-0.4c2.763,1.245,5.349,3.775,7.64,6.891c-1.24,1.025-2.569,2.369-3.705,4.025
					c-1.399-2.055-2.952-3.811-4.662-4.985c-2.096,5.305,1.604,16.969,3.697,23.566c1.939,6.107,2.74,8.635,1.627,10.48
					c-0.079,0.131-0.178,0.244-0.273,0.36l3.313,1.208c0.651,1.266,2.262,4.391,3.965,7.289L9.474,64.024
					C15.282,80.883,31.255,93,50.062,93c8.081,0,15.639-2.24,22.094-6.128l-25.18-9.179c0.459-1.242,0.073-2.713-0.733-3.885
					c-0.781-1.141-1.43-2.092-2.006-2.957l6.231,2.271c0.112-0.329,0.272-0.6,0.441-0.772c0.673-0.686,0.776-0.76,1.227-1.164
					c10.273-9.256,16.569-15.885,18.728-19.721c-3.624-1-16.676,0.642-30.382,4.641c-1.452,0.426-2.976-0.412-3.398-1.869
					c-0.101-0.342-0.124-0.689-0.093-1.025c-0.872-2.557-2.046-5.91-3.528-9.293c-0.147-2.534,1.99-4.343,3.503-5.346
					c0.973,1.88,1.844,3.803,2.593,5.672c1.816-4.157,4.487-7.747,7.677-10.146c0.577-0.435,1.172-0.818,1.779-1.172
					c-2.046,0.127-4.248,0.587-6.526,1.426c-5.231,1.926-7.702,2.844-9.874,7.245c-2.171,4.401,3.436,20.532,12.594,32.886
					c0.904,1.217,0.65,2.939-0.567,3.842c-0.49,0.367-1.064,0.541-1.632,0.541c-0.839,0-1.666-0.381-2.204-1.107
					c-9.4-12.682-14.919-32.668-12.108-38.344c2.466-4.976,5.37-7.814,11.898-10.217c5.134-1.891,10.158-2.291,14.341-1.218
					c-2.065-2.388-6.007-5.59-10.193-6.278c-3.78-0.623-6.74,1.021-9.041,5.024c-0.755,1.315-2.433,1.768-3.744,1.012
					c-1.314-0.757-1.766-2.436-1.011-3.75c4.225-7.356,11.062-9.731,18.75-6.516c3.485,1.456,7.091,4.16,9.47,7l-3.686-6.888
					l6.854,5.422l-4.14-7.248l11.067,8.746c1.509,0.88,2.717,2.191,3.47,3.81c0.978,2.095,1.077,4.445,0.289,6.618
					c-1.238,3.406-4.504,5.696-8.123,5.696c-1.009,0-2.003-0.175-2.957-0.523c-2.021-0.737-3.656-2.174-4.659-4.064
					c-2.432,0.082-4.698,0.9-6.758,2.449c-3.163,2.379-5.737,6.508-7.072,11.112c5.671-1.462,11.579-2.655,16.488-3.301
					c11.323-1.489,14.345,0.197,15.712,1.833c0.565,0.677,1.737,2.543,0.396,5.252c-2.394,4.836-9.564,12.029-16.085,18.084
					c3.058-0.199,6.628,0.027,9.354,2.893c1.046,1.096,1.004,2.834-0.094,3.881c-0.531,0.508-1.211,0.76-1.893,0.76
					c-0.722,0-1.444-0.287-1.984-0.852c-1.089-1.144-2.678-1.447-4.845-1.37l16.837,6.136c0.077,0.028,0.144,0.07,0.217,0.104
					C86.993,75.133,93,63.27,93,50C93,26.253,73.773,7,50.062,7z"/>

	</g>
</svg>
