<svg xmlns="http://www.w3.org/2000/svg" viewBox="0 0 100 100">
	
	<style>
		<!-- freezer - thin line style -->
		.white {fill:white;}
		.black {fill:black;}
		.gray {fill:#ddd;}
		.stroke-black {fill:none;stroke:#000000;stroke-width:0.75;stroke-miterlimit:10;stroke-linecap:round;stroke-linejoin:round;}
		.stroke-black-thin {fill:none;stroke:#000000;stroke-width:0.645;stroke-miterlimit:10;stroke-linecap:round;stroke-linejoin:round;}
	</style>

	<g class="freezer-tv">

		<circle id="bg" class="gray" cx="50" cy="50" r="49"/>
		
		<path class="stroke-black" d="M85.414,51.219c0.02-0.902,0.033-1.804,0.035-2.71c-0.716-0.074-1.431-0.146-2.145-0.218
				c-0.002,0.925-0.013,1.847-0.031,2.766C83.984,51.108,84.7,51.166,85.414,51.219z M82.688,35.261
				c1.796,0.376,3.589,0.787,5.371,1.249c-0.096-0.855-0.201-1.711-0.32-2.566c-1.771-0.511-3.555-0.965-5.346-1.381
				C82.501,33.462,82.599,34.361,82.688,35.261z M83.095,40.583c1.807,0.296,3.605,0.619,5.407,0.978
				c-0.058-0.888-0.125-1.777-0.203-2.666c-1.789-0.414-3.589-0.784-5.39-1.123C82.982,38.709,83.045,39.646,83.095,40.583z
				 M86.793,51.327c0.631,0.05,1.264,0.101,1.895,0.151c0.024-0.869,0.037-1.74,0.038-2.613c-0.631-0.073-1.266-0.143-1.896-0.21
				C86.826,49.547,86.815,50.437,86.793,51.327z M93,50c0-5.711-1.123-11.158-3.146-16.144c1.688,11.448,1.502,22.888-0.598,33.684
				C91.655,62.183,93,56.25,93,50z M80.796,26.423c0.001,0.003,0.001,0.006,0.002,0.009l3.133,0.911
				c-0.001-0.003-0.001-0.007-0.002-0.01l-3.111-0.905C80.811,26.426,80.803,26.425,80.796,26.423z M79.577,45.371
				c0.865,0.094,1.192-0.589,1.174-1.338c-0.021-0.798-0.34-1.639-1.251-1.757c-0.9-0.117-1.092,0.787-1.075,1.481
				C78.441,44.49,78.729,45.28,79.577,45.371z M80.796,26.423c-0.064-0.368-0.131-0.735-0.199-1.103
				c-12.87-7.134-26.803-8.702-40.917-11.424c-0.091,0.095-0.182,0.188-0.273,0.281c-0.964-0.099-1.928-0.188-2.89-0.265
				c0.34-0.6,0.685-1.196,1.037-1.792c0.901,0.278,1.798,0.568,2.693,0.869c-0.094,0.149-0.187,0.299-0.281,0.449
				c14.217,2.647,28.264,4.195,41.192,11.426c0.812,0.238,1.623,0.488,2.428,0.75c0.12,0.573,0.232,1.146,0.343,1.72l0.022,0.006
				c0.948,0.294,1.892,0.604,2.827,0.934c0.157,0.059,0.3,0.133,0.441,0.207C79.781,15.642,65.903,7,50,7
				c-13.578,0-25.678,6.3-33.559,16.129C36.918,19.849,59.404,20.879,80.796,26.423z M79.396,39.882c0.9,0.131,1.156-0.648,1.109-1.392
				c-0.053-0.805-0.416-1.607-1.304-1.756c-0.875-0.147-1.05,0.712-1.009,1.393C78.235,38.884,78.52,39.754,79.396,39.882z
				 M79.735,61.557c-0.23,0.258-0.37,0.562-0.41,0.899c-0.492,4.899-1.217,9.708-2.247,14.4c-0.055,0.27-0.017,0.541,0.117,0.784
				c2.163-0.257,4.323-0.574,6.471-0.979c0.165-0.218,0.283-0.459,0.356-0.717c1.199-4.477,2.05-9.084,2.625-13.789
				c0.024-0.251-0.045-0.492-0.179-0.714C84.218,61.51,81.973,61.542,79.735,61.557z M80.079,33.384
				c-0.082-0.803-0.486-1.557-1.343-1.729c-0.849-0.172-1.014,0.623-0.95,1.29c0.071,0.743,0.435,1.455,1.235,1.602
				C79.836,34.695,80.155,34.115,80.079,33.384z M83.286,45.794c1.805,0.216,3.612,0.449,5.419,0.703
				c-0.018-0.905-0.045-1.815-0.086-2.725c-1.803-0.312-3.608-0.595-5.412-0.856C83.242,43.877,83.269,44.837,83.286,45.794z
				 M79.565,50.785c0.874,0.063,1.218-0.636,1.227-1.392c0.008-0.78-0.274-1.637-1.196-1.724c-0.908-0.085-1.124,0.83-1.132,1.534
				C78.456,49.925,78.709,50.726,79.565,50.785z M69.771,79.637c1.707-0.152,2.678-1.256,2.995-2.803
				c2.615-14.505,3.188-29.93,1.783-45.715c-0.219-1.836-1.545-2.839-3.295-3.161c-18.896-3.006-37.851-3.615-55.764-1.294
				c-1.566,0.252-2.393,1.414-2.587,2.988c-1.419,14.277-0.771,28.5,2.002,42.114c0.364,1.601,1.307,2.897,2.967,3.363
				C34.621,79.321,52.235,80.708,69.771,79.637z M15.459,32.234c0.13-1.379,0.847-2.366,2.229-2.525
				c16.5-1.423,33.666-0.846,50.959,1.404c1.557,0.238,2.712,1.12,2.855,2.752c0.857,13.934,0.4,27.508-1.423,40.473
				c-0.228,1.386-1.132,2.266-2.623,2.35c-16.101,0.507-32.095-0.729-47.551-3.945c-1.48-0.342-2.484-1.317-2.769-2.8
				C15.099,57.691,14.555,45.035,15.459,32.234z M27.351,37.312c-0.047,2.012-0.072,4.018-0.08,6.017
				c-0.004,0.839-0.019,1.688-0.216,2.493c1.455,0.05,2.913,0.104,4.374,0.162c-0.216-0.836-0.234-1.697-0.235-2.545
				c0.004-1.927,0.023-3.862,0.057-5.803c0.018-0.401,0.332-0.574,0.7-0.578c0.51,0.006,1.021,0.012,1.53,0.02
				c0.943,0.017,1.871,0.087,2.807,0.29c0.011-0.814,0.022-1.63,0.035-2.448c-1.112-0.018-2.223-0.033-3.333-0.041
				c-0.888,0.003-1.718,0.185-1.89,1.171c-0.015,0-0.03,0-0.045,0c-0.044-0.391-0.087-0.785-0.131-1.178
				c-1.245,0-2.484,0.005-3.723,0.021C27.38,35.691,27.368,36.509,27.351,37.312z M31.531,50.671c0.891-0.271,1.896-0.183,2.837-0.134
				c1.23,0.068,2.463,0.134,3.699,0.199c-2.284,3.017-4.526,6.019-6.724,9.011c4.369,0.368,8.759,0.69,13.174,0.971
				c0.078-0.638,0.155-1.281,0.233-1.922c-0.941,0.26-1.982,0.16-2.963,0.099c-1.495-0.097-2.99-0.197-4.48-0.305
				c2.333-3.054,4.697-6.129,7.092-9.229c-4.244-0.223-8.466-0.437-12.667-0.639C31.665,49.372,31.596,50.021,31.531,50.671z
				 M17.551,78.195C25.435,87.261,37.043,93,50,93c11.129,0,21.271-4.229,28.906-11.167C58.673,85.705,36.852,83.818,17.551,78.195z
				 M40.054,46.354c3.536,0.166,7.083,0.346,10.648,0.542c0.117-0.649,0.231-1.299,0.346-1.951c-0.452,0.06-0.909,0.095-1.367,0.071
				c-2.514-0.136-5.021-0.262-7.521-0.377c-0.539-0.034-0.732-0.354-0.738-0.867c0-0.683,0-1.366,0.001-2.05
				c3.192,0.132,6.398,0.289,9.617,0.471c-0.007-1.23-0.014-2.463-0.021-3.698c-0.05-1.871-1.043-3.043-2.936-3.177
				c-2.673-0.134-5.338-0.239-7.993-0.314c-1.86-0.016-2.825,1.071-2.876,2.909c-0.018,1.754-0.028,3.505-0.03,5.247
				C37.217,45.01,38.154,46.226,40.054,46.354z M41.435,37.613c0.007-0.512,0.209-0.797,0.738-0.787
				c1.262,0.046,2.526,0.097,3.791,0.155c0.534,0.033,0.736,0.337,0.743,0.852c0.002,0.775,0.003,1.551,0.003,2.324
				c-1.765-0.086-3.526-0.163-5.284-0.232C41.428,39.154,41.431,38.385,41.435,37.613z M9.267,36.228C7.805,40.553,7,45.182,7,50
				c0,6.938,1.653,13.487,4.572,19.29C9.298,58.564,8.543,47.403,9.267,36.228z M19.247,43.185c-0.005,0.804-0.019,1.617-0.189,2.39
				c1.295,0.034,2.592,0.07,3.891,0.11c-0.197-0.808-0.211-1.636-0.211-2.452c0.01-2.225,0.05-4.458,0.124-6.697
				c1.167-0.023,2.336-0.038,3.508-0.047c0.015-0.53,0.031-1.059,0.051-1.589c-1.169,0.017-2.335,0.042-3.5,0.073
				c0.017-0.457,0.038-0.914,0.06-1.371c0.026-0.449,0.188-0.743,0.652-0.768c0.863-0.032,1.726-0.058,2.59-0.08
				c0.394-0.007,0.79,0.039,1.183,0.107c-0.076-0.588-0.151-1.176-0.225-1.764c-1.742,0.05-3.477,0.121-5.207,0.211
				c-1.617,0.122-2.364,1.246-2.474,2.831c-0.017,0.318-0.033,0.637-0.047,0.955c-0.595,0.024-1.188,0.052-1.781,0.083
				c-0.024,0.503-0.047,1.008-0.067,1.511c0.594-0.022,1.188-0.043,1.783-0.063C19.304,38.819,19.258,41.005,19.247,43.185z
				 M20.986,58.754c2.992,0.32,5.995,0.609,9.01,0.875c0.076-0.601,0.154-1.207,0.233-1.808c-0.401,0.045-0.809,0.071-1.218,0.037
				c-2.146-0.178-4.287-0.366-6.423-0.567c-0.474-0.054-0.619-0.383-0.648-0.813c-0.036-0.629-0.069-1.258-0.098-1.888
				c2.756,0.222,5.521,0.431,8.294,0.626c-0.039-1.19-0.07-2.385-0.097-3.582c-0.065-1.717-0.869-2.997-2.692-3.121
				c-2.288-0.107-4.568-0.209-6.842-0.308c-1.674-0.035-2.243,1.183-2.209,2.726c0.061,1.616,0.14,3.228,0.239,4.833
				C18.655,57.294,19.343,58.542,20.986,58.754z M22.28,49.982c1.075,0.056,2.151,0.116,3.229,0.174
				c0.501,0.036,0.649,0.372,0.666,0.83c0.018,0.747,0.041,1.493,0.065,2.238c-1.493-0.101-2.982-0.203-4.471-0.31
				c-0.029-0.729-0.055-1.458-0.077-2.187C21.683,50.291,21.796,49.966,22.28,49.982z M29.841,70.516
				c-2.055-0.271-4.103-0.569-6.145-0.899c-0.435-0.077-0.609-0.354-0.664-0.765c-0.067-0.562-0.133-1.121-0.196-1.684
				c2.652,0.4,5.312,0.755,7.982,1.074c-0.08-1.079-0.155-2.159-0.223-3.242c-0.132-1.65-1.005-2.819-2.736-3.034
				c-2.234-0.229-4.46-0.479-6.682-0.749c-1.595-0.161-2.113,0.901-1.98,2.35c0.159,1.467,0.336,2.927,0.533,4.381
				c0.221,1.445,1.006,2.521,2.514,2.819c2.852,0.511,5.718,0.948,8.594,1.337c0.052-0.519,0.105-1.041,0.159-1.558
				C30.616,70.564,30.227,70.564,29.841,70.516z M22.478,63.656c-0.034-0.413,0.069-0.697,0.53-0.647
				c1.045,0.132,2.093,0.258,3.143,0.379c0.473,0.062,0.646,0.366,0.684,0.807c0.053,0.683,0.107,1.362,0.166,2.044
				c-1.446-0.183-2.886-0.375-4.324-0.579C22.606,64.99,22.54,64.322,22.478,63.656z M38.005,62.885
				c-0.864-0.06-1.73,0.028-1.849,0.997c-0.015-0.002-0.032-0.002-0.047-0.004c-0.068-0.389-0.136-0.774-0.204-1.164
				c-1.274-0.107-2.545-0.219-3.815-0.333c0.239,0.777,0.298,1.581,0.344,2.374c0.101,1.831,0.214,3.661,0.343,5.481
				c0.048,0.708,0.092,1.429-0.056,2.107c1.415,0.176,2.83,0.339,4.251,0.488c-0.241-0.707-0.299-1.448-0.338-2.176
				c-0.088-1.74-0.167-3.489-0.237-5.244c-0.002-0.386,0.318-0.518,0.672-0.494c0.512,0.046,1.024,0.086,1.536,0.129
				c0.944,0.08,1.875,0.202,2.805,0.442c-0.014-0.78-0.029-1.565-0.042-2.353C40.246,63.058,39.125,62.975,38.005,62.885z"/>
			
	</g>
</svg>
