<svg xmlns="http://www.w3.org/2000/svg" viewBox="0 0 100 100">
	
	<style>
		<!-- freezer - thin line style -->
		.white {fill:white;}
		.black {fill:black;}
		.gray {fill:#ddd;}
		.stroke-black {fill:none;stroke:#000000;stroke-width:0.75;stroke-miterlimit:10;stroke-linecap:round;stroke-linejoin:round;}
		.stroke-black-thin {fill:none;stroke:#000000;stroke-width:0.645;stroke-miterlimit:10;stroke-linecap:round;stroke-linejoin:round;}
	</style>


	<g class="freezer-classic">

		<circle id="bg" class="gray" cx="50" cy="50" r="49"/>
	
		<path 
			transform="rotate(-30 50 50)" 
			class="stroke-black" 
			d="M50,7C26.265,7,7,26.267,7,50.001c0,10.15,3.532,19.477,9.421,26.835V59.15h-0.016
			c0.007-0.202,0.031-14.277,0.031-14.481c-0.014-5.774,4.075-11.494,10.329-11.494c12.163,0,8.047,13.839,14.504,13.839
			c5.333,0,11.319-12.515,11.319-12.515v-9.055c0-1.018,0.751-1.832,1.688-1.832h16.656v4.882h9.264
			c1.685,0,3.085,1.528,3.085,3.359c0,1.832-1.4,3.356-3.085,3.356h-9.264v7.938h9.264c1.687,0,3.087,1.529,3.087,3.359
			c0,1.833-1.4,3.357-3.087,3.357h-9.264v4.885h-16.66c-0.936,0-1.685-0.815-1.685-1.831v-8.751c0,0-4.999,8.402-11.32,8.343
			c-11.323-0.1-6.082-13.837-14.503-13.837c-3.254,0-5.332,3.417-5.332,5.995c0,1.542,0.023,12.633,0.003,14.267h33.365
			c5.312,0,5.995,4.007,5.995,7.492v1.51c0,2.781-0.44,4.775-2.437,5.833c1.195,0.564,2.207,1.756,2.342,4.64v-1.196L73.39,65.523
			H61.555v-6.589h21.728v6.345l-12.66,11.688h12.854C89.428,69.589,93,60.212,93,50.001C93,26.267,73.735,7,50,7z M54.393,68.557
			v-0.784c0-1.768-0.516-2.05-2.186-2.05h-8.465v4.884h8.978C53.97,70.606,54.393,70.092,54.393,68.557z M54.164,80.259
			c0-2.472-0.565-2.866-1.904-2.866h-8.519v6.161h-6.556V65.529l-14.207-0.006v3.543h13.05v6.393H22.978v7.974
			C30.364,89.411,39.764,93,50,93c10.165,0,19.504-3.541,26.867-9.446H54.164V80.259z"/>

	</g>

</svg>

