<svg xmlns="http://www.w3.org/2000/svg" viewBox="0 0 100 100">
	
	<style>
		<!-- freezer - thin line style -->
		.white {fill:white;}
		.black {fill:black;}
		.gray {fill:#ddd;}
		.stroke-black {fill:none;stroke:#000000;stroke-width:0.75;stroke-miterlimit:10;stroke-linecap:round;stroke-linejoin:round;}
		.stroke-black-thin {fill:none;stroke:#000000;stroke-width:0.645;stroke-miterlimit:10;stroke-linecap:round;stroke-linejoin:round;}
	</style>


	<g class="freezer-tucknee">

		<circle id="bg" class="gray" cx="50" cy="50" r="49"/>

		<g id="circle">
			<path d="M50,7.75c23.297,0,42.25,18.953,42.25,42.25c0,23.296-18.953,42.25-42.25,42.25S7.75,73.297,7.75,50
				C7.75,26.704,26.703,7.75,50,7.75 M50,7C26.252,7,7,26.253,7,50c0,23.746,19.252,43,43,43c23.746,0,43-19.254,43-43
				C93,26.253,73.746,7,50,7L50,7z"/>
		</g>

			<path class="stroke-black" d="M51.583,56.759c1.844-0.69,3.513-1.255,4.952-1.705c-1.93-1.488-3.89-2.794-5.88-3.923
				c-0.161,2.339-0.086,3.552,0.073,5.078C51.014,56.391,51.299,56.568,51.583,56.759z M69.965,69.029
				c-0.856,0.705-1.965,1.608-3.285,2.67c0.056,0.076,0.115,0.151,0.172,0.229c0.415,0.564,1.057,0.859,1.704,0.859
				c0.436,0,0.878-0.133,1.255-0.413c0.939-0.692,1.138-2.019,0.444-2.959C70.163,69.286,70.063,69.16,69.965,69.029z M65.703,63.751
				c-1.03-1.174-2.075-2.287-3.128-3.347c-1.041,0.257-2.658,0.696-4.717,1.36c1.545,1.426,3.064,2.973,4.555,4.66
				C63.734,65.36,64.853,64.451,65.703,63.751z M88.039,49.979c-0.734-0.907-2.067-1.043-2.976-0.307l-3.959,3.221l1.7-3.202
				c0.551-1.033,0.156-2.315-0.876-2.862c-1.032-0.548-2.312-0.157-2.861,0.877l-3.134,5.902c-3.126-0.119-10.93-0.014-20.078,3.069
				c-6.908,2.329-11.624,4.486-14.333,5.868c-0.241-2.808,1.101-5.84,2.97-8.833c-0.001,0.161-0.005,0.318-0.009,0.478
				c-0.037,2.006-0.069,3.836-0.07,5.553c1.713-0.786,3.332-1.471,4.863-2.086c0.013-1.063,0.034-2.183,0.056-3.377
				c0.042-2.437,0.095-5.196,0.097-8.324c0-1.047-0.671-1.976-1.666-2.304c-0.994-0.328-2.085,0.021-2.708,0.862l-0.542,0.732
				c-3.188,4.303-6.935,9.376-7.719,14.682c-1.712-2.516-2.365-5.227-2.758-9.617c1.589,0.132,3.17,0.376,4.742,0.743
				c0.678-1.09,1.536-2.348,2.608-3.823c-2.07-0.58-4.163-0.966-6.271-1.175c1.666-2.254,1.963-5.763,0.518-9.178
				c-1.435-3.391-4.255-5.745-7.163-6.046l0.002-0.007l-12.185-1.225l6.544,3.381l-7.681-0.725l6.665,4.444
				c-0.001,0.016-0.003,0.028-0.005,0.042l-4.81-0.434l4.826,3.022c0.002,0.015,0.003,0.028,0.006,0.042l-2.369-0.231l2.881,2.401
				c0.093,0.273,0.195,0.548,0.311,0.822c0.678,1.604,1.671,2.966,2.833,3.999c-4.255,0.697-8.548,2.127-12.844,4.312
				c-1.042,0.531-1.458,1.803-0.927,2.846c0.531,1.042,1.802,1.459,2.846,0.928c5.092-2.588,10.189-3.983,15.224-4.22
				c0.694,8.121,2.221,11.902,8.161,17.141c0.379,0.335,0.845,0.504,1.315,0.521c0.194,0.058,0.395,0.096,0.599,0.096
				c0.387,0,0.778-0.104,1.128-0.327c0.052-0.032,5.231-3.272,16.216-6.974c7.816-2.634,14.65-2.909,17.835-2.86L53.994,74.941
				l0.602-2.474c0.315-1.301-0.485-2.612-1.786-2.927c-0.982-0.236-1.976,0.16-2.536,0.934c-0.443-1.826-0.701-3.622-0.848-5.529
				c-1.362,0.586-2.785,1.229-4.269,1.947c-0.132,0.064-0.269,0.102-0.404,0.149c0.456,4.009,1.475,7.805,3.637,12.459l-5.337,4.339
				c-0.906,0.74-1.043,2.073-0.306,2.979c0.419,0.514,1.028,0.782,1.643,0.782c0.471,0,0.941-0.157,1.333-0.476l42.012-34.172
				C88.641,52.217,88.778,50.886,88.039,49.979z"/>

	</g>

</svg>

