<svg xmlns="http://www.w3.org/2000/svg" viewBox="0 0 100 100">
	
	<style>
		<!-- freezer - thin line style -->
		.white {fill:white;}
		.black {fill:black;}
		.gray {fill:#ddd;}
		.stroke-black {fill:none;stroke:#000000;stroke-width:0.75;stroke-miterlimit:10;stroke-linecap:round;stroke-linejoin:round;}
		.stroke-black-thin {fill:none;stroke:#000000;stroke-width:0.645;stroke-miterlimit:10;stroke-linecap:round;stroke-linejoin:round;}
	</style>

	<circle id="bg" class="gray" cx="50" cy="50" r="49"/>

	<path class="stroke-black" d="M44.1,68.5L30.3,44.8 M24.7,35.2c-2-3.5-2.6-7.3-2-10.9l-11.1,6.4C8.6,36.5,7,43.1,7,50.1
		c0,7,1.7,13.7,4.8,19.5l9.3-5.5l2.4,4.1l-9.3,5.5C21.9,85.3,35,93,49.9,93l10.4-6c-3.9-1.1-7.5-3.7-9.8-7.6 M27.3,66l-2.4-4.1
		l9.7-5.8l2.5,4.3L27.3,66z M76.5,63l0.6,1c2.3,3.9,2.8,8.4,1.7,12.4l8.4-4.8c3.7-6.4,5.8-13.8,5.8-21.7c0-7-1.7-13.5-4.7-19.4
		l-8,4.6L78,31l7.9-4.6C78.7,15.4,66.6,7.9,52.7,7L43,12.6c2.2,0.8,4.2,2.1,5.9,3.9c0.8,0.8,1.5,1.7,2.1,2.6 M56.9,29.2l13.8,23.7
		 M67.1,42.8l-2.4-4.1l9.4-5.5l2.4,4.1L67.1,42.8z"/>

	<path id="trucks" class="stroke-black" d="M46.2,31.6c0.8,1.3,2.2,2.1,3.6,2.1c0.7,0,1.5-0.2,2.1-0.6l1.7-1c1-0.6,1.7-1.5,2-2.6
		c0.3-1.1,0.1-2.2-0.4-3.2l-2.1-3.6c-0.8-1.3-2.2-2.1-3.7-2.1c-0.7,0-1.5,0.2-2.1,0.6l-1.7,1c-1,0.6-1.7,1.5-2,2.6
		c-0.3,1-0.1,2,0.3,2.9l-8.6,5c-0.8-1.1-2.1-1.8-3.5-1.8c-0.7,0-1.5,0.2-2.1,0.6l-1.7,1c-1,0.6-1.7,1.5-2,2.6
		c-0.3,1.1-0.1,2.2,0.4,3.2l2.1,3.6c0.8,1.3,2.2,2.1,3.7,2.1c0.7,0,1.5-0.2,2.1-0.6l1.7-1c1-0.6,1.7-1.5,2-2.6
		c0.3-1.1,0.1-2.2-0.4-3.2L46.2,31.6z M74.8,60.1l-2.1-3.6c-0.8-1.3-2.2-2.1-3.7-2.1c-0.7,0-1.5,0.2-2.1,0.6l-1.7,1
		c-1,0.6-1.7,1.5-2,2.6c-0.3,1-0.1,2,0.3,2.9l-8.6,5c-0.8-1.1-2.1-1.8-3.5-1.8c-0.7,0-1.5,0.2-2.1,0.6l-1.7,1c-1,0.6-1.7,1.5-2,2.6
		c-0.3,1.1-0.1,2.2,0.4,3.2l2.1,3.6c0.8,1.3,2.2,2.1,3.7,2.1c0.7,0,1.5-0.2,2.1-0.6l1.7-1c1-0.6,1.7-1.5,2-2.6
		c0.3-1.1,0.1-2.2-0.4-3.2l8.6-5c0.8,1.3,2.2,2.1,3.6,2.1c0.7,0,1.5-0.2,2.1-0.6l1.7-1c1-0.6,1.7-1.5,2-2.6
		C75.5,62.2,75.3,61.1,74.8,60.1z"/>

	<path id="circle-86_4_" class="stroke-black" d="M12.9,28.2C20.4,15.5,34.2,7,50,7"/>

	<path id="circle-86_2_" class="stroke-black" d="M85.9,73.7c-7.3,11-19.4,18.5-33.4,19.3"/>

</svg>
