<svg xmlns="http://www.w3.org/2000/svg" viewBox="0 0 100 100">
	
	<style>
		<!-- freezer - thin line style -->
		.white {fill:white;}
		.black {fill:black;}
		.gray {fill:#ddd;}
		.stroke-black {fill:none;stroke:#000000;stroke-width:0.75;stroke-miterlimit:10;stroke-linecap:round;stroke-linejoin:round;}
		.stroke-black-thin {fill:none;stroke:#000000;stroke-width:0.645;stroke-miterlimit:10;stroke-linecap:round;stroke-linejoin:round;}
	</style>

		<circle id="bg" class="gray" cx="50" cy="50" r="49"/>

	 <path class="stroke-black" d="M46.7,46.8c-3.5,2-0.9,6.5,2.6,4.4"/> 

	<path class="stroke-black" d="M45.5,44.1l-7.9,4.7l0.1,1.6c0,6.9-7.5,6.2-12.4,6.3c-3.2,0.1-6.9,0.2-9.9,1.5h0c-0.4,0.2-0.9,0.4-1.3,0.7
		c-2.2,1.4-3.5,3.4-4.2,5.8"/>

	<path class="stroke-black" d="M78.1,38.3c5.1-3,9.3-5.5,10.9-6.4c-4.4-4.8-9.7-6.9-16.4-3.6"/>

	<path class="stroke-black" d="M20,80.3c0.3,0,0.5,0,0.8,0c5.8,0,10.8-3.9,10.9-9.9c0-0.1,0-0.2,0-0.3c0-2.7-0.4-4.6-2.2-6.8
		c-0.4-0.4-0.7-0.7-0.7-1.3c0-1.1,1.6-1.9,2.5-2.2c2.5-0.9,5.1-0.7,7.6-0.6c3.3,0.1,2.7,0.4,5.2-1c0,0,2.8-1.6,6.9-4"/>

	<polygon class="stroke-black" points="70.6,29.2 72,31.6 69.3,40.2 70.5,39.4 75.1,36.7 76.6,39.1 69.1,43.5 67.7,41.1 69.1,33.3 67.9,34.1 
		64.7,35.9 63.3,33.5 "/>

	<path class="stroke-black" d="M67,42.5c-1-1.6-1.7-1.7-2.3-1.5l0,0c0.7-0.8,0.4-1.7-0.4-3l-0.4-0.6c-1.1-1.8-2.1-2.7-3.6-1.8l0,0l-5.8,3.4
		l5.9,9.8l1.9-1.1L60.7,45l3-1.8c0.6-0.3,1-0.1,1.6,0.9l0.7,1.2l1.9-1.1L67,42.5z M62.4,40.7l-3.2,1.9l-1.4-2.4l3-1.8
		c0.9-0.6,1.7,0.8,1.7,0.8l0,0C63,39.9,63,40.4,62.4,40.7z"/>

	<polygon class="stroke-black" points="53.2,39.6 54.6,42 50,44.7 51.1,46.6 55.5,44 56.9,46.3 52.4,48.9 54.4,52.3 52.5,53.4 46.7,43.5 "/>

	<path class="stroke-black" d="M59.5,51.8l-9.7,5.9c0,0,17.6,11.6,19.6,12.7v0c3.2,1.7,6.6,2.9,10.1,2.9c4.7,0,8.4-3.1,8.5-3.3L59.5,51.8z"/>

	<path class="stroke-black" d="M28.2,31.2c0-4.1-3.2-8-7.6-8c-4,0-7.7,3.2-7.7,7.5c0,4.5,3.1,8.2,7.7,8.2C24.8,38.9,28.2,35.3,28.2,31.2z"/>

	<path class="stroke-black" d="M86.3,26.9C78.6,14.9,65.2,7,50,7c-10.7,0-20.5,3.9-28,10.4"/>

	<path class="stroke-black" d="M8.6,38.5C7.6,42.2,7,46,7,50c0,4.1,0.6,8.1,1.7,11.9"/>

	<path class="stroke-black" d="M22,82.6C29.5,89.1,39.3,93,50,93c14.8,0,27.8-7.4,35.5-18.8"/>

	<path class="stroke-black" d="M9.9,35.4c0.9,2.7,2.6,4.9,5.4,6.3c2.8,1.3,5.2,1.4,8.2,1.6l4,0.2c2.9,0.2,7.1,0.3,9,2.9h0v0l8.8-5.3
		c-0.8-0.9-1.5-1.2-2.7-1.2c-1.2,0-2.2,0.3-3.3,0.5c-1.3,0.3-2.1,0.5-3.5,0.5c-1.7,0-6.9-0.1-6.9-2.7c0-0.6,0.7-1.3,1-1.8
		c1.3-2,1.8-3.4,1.8-5.9c0-6.4-5.1-10.7-11.3-10.7"/>

	<path class="stroke-black" d="M89.1,67.8C91.6,62.4,93,56.4,93,50c0-5.7-1.1-11.1-3.1-16"/>
	
<!-- 	<g id="circle">

		<path d="M50,7.8c23.3,0,42.2,19,42.2,42.2c0,23.3-19,42.2-42.2,42.2S7.8,73.3,7.8,50C7.8,26.7,26.7,7.8,50,7.8 M50,7
			C26.3,7,7,26.3,7,50c0,23.7,19.3,43,43,43c23.7,0,43-19.3,43-43C93,26.3,73.7,7,50,7L50,7z"/>

	</g> -->

	<path class="stroke-black" d="M28.6,69c0-4.1-3.2-8-7.6-8c-4,0-7.7,3.2-7.7,7.5c0,4.5,3.1,8.2,7.7,8.2C25.3,76.7,28.6,73.1,28.6,69z"/>

</svg>
