<svg xmlns="http://www.w3.org/2000/svg" viewBox="0 0 100 100">
	
	<style>
		<!-- freezer - thin line style -->
		.white {fill:white;}
		.black {fill:black;}
		.gray {fill:#ddd;}
		.stroke-black {fill:none;stroke:#000000;stroke-width:0.75;stroke-miterlimit:10;stroke-linecap:round;stroke-linejoin:round;}
		.stroke-black-thin {fill:none;stroke:#000000;stroke-width:0.645;stroke-miterlimit:10;stroke-linecap:round;stroke-linejoin:round;}
	</style>


	<g class="freezer-classic">

		<circle id="bg" class="gray" cx="50" cy="50" r="49"/>

		<g id="freezer-camera">
			
			<path d="M50,7.75c23.297,0,42.25,18.953,42.25,42.25c0,3.469-0.41,6.865-1.226,10.16c0.711-7.692-0.341-15.49-3.119-22.621
			c-0.013-0.031-0.027-0.062-0.043-0.09c-1.164-2.665-3.181-4.45-5.857-5.17c-6.055-1.44-12.402-2.48-18.871-3.092
			c-1.338-1.536-2.631-2.895-3.944-4.147c-0.127-0.121-0.291-0.193-0.466-0.205c-3.333-0.232-6.735-0.35-10.112-0.35
			c-1.669,0-3.366,0.029-5.043,0.085c-0.192,0.006-0.375,0.087-0.51,0.225c-1.196,1.22-2.38,2.542-3.613,4.035
			c-2.901,0.181-5.831,0.446-8.719,0.789c-0.45-0.327-0.897-0.544-0.92-0.555c-0.102-0.049-0.213-0.074-0.326-0.074
			c-0.035,0-0.07,0.002-0.105,0.007c-0.973,0.138-1.818,0.265-2.607,0.383c-1.521,0.228-2.833,0.425-4.463,0.613
			c-0.677,0.08-1.241,0.482-1.622,1.146c-0.808,0.149-1.616,0.304-2.436,0.47c-2.887,0.665-5.099,2.548-6.237,5.328
			C9.348,44.19,8.311,52.162,8.948,60.021C8.151,56.764,7.75,53.414,7.75,50C7.75,26.704,26.703,7.75,50,7.75 M81.59,78.04
			C73.56,87.103,62.187,92.25,50,92.25c-11.826,0-22.99-4.902-30.983-13.529c9.883,1.854,19.986,2.794,30.046,2.794
			C60.278,81.515,71.209,80.348,81.59,78.04 M50,7C26.252,7,7,26.253,7,50c0,6.44,1.426,12.543,3.963,18.028
			c-2.401-10.165-1.854-21.015,1.75-30.833c1.04-2.538,3.031-4.24,5.702-4.855c0.921-0.187,1.846-0.362,2.773-0.532
			c0.231-0.562,0.625-1.003,1.203-1.071c2.487-0.287,4.234-0.593,7.089-0.999c0,0,0.574,0.276,1.029,0.66
			c3.085-0.373,6.191-0.654,9.307-0.841c1.201-1.466,2.452-2.887,3.777-4.239c1.672-0.057,3.345-0.085,5.018-0.085
			c3.355,0,6.711,0.115,10.061,0.348c1.438,1.371,2.794,2.821,4.093,4.323c6.454,0.597,12.842,1.622,19.066,3.103
			c2.526,0.68,4.349,2.42,5.371,4.803h0.004c3.836,9.844,4.295,20.825,1.479,30.975C91.447,63.11,93,56.737,93,50
			C93,26.253,73.746,7,50,7L50,7z M83.838,76.515h0.005H83.838z M83.838,76.515c-0.481,0.246-0.992,0.454-1.547,0.599
			c-10.771,2.47-22.001,3.651-33.229,3.651c-10.486,0-20.97-1.03-31.084-3.006c-0.379-0.085-0.74-0.197-1.089-0.326
			C24.777,86.941,36.681,93,50,93C63.739,93,75.966,86.547,83.838,76.515L83.838,76.515z"/>
		</g>
	
		<path class="stroke-black" d="M67.04,71.166c-4.586,4.491-10.73,7.111-16.859,7.186c-0.092,0.002-0.188,0.002-0.278,0.002
		c-6.606,0-13.084-2.9-17.77-7.96c-4.273-4.612-6.593-10.571-6.533-16.786c0.063-6.534,2.729-12.646,7.508-17.212
		c4.555-4.347,10.649-6.844,16.729-6.844c0.1,0,0.2,0,0.301,0.002c6.046,0.081,12.123,2.618,16.685,6.949
		c4.809,4.578,7.501,10.658,7.576,17.143c0.072,6.581-2.536,12.809-7.362,17.526L67.04,71.166z"/>
	
		<path class="stroke-black" d="M39.354,35.51c-10.181,5.878-13.673,18.913-7.795,29.092c2.513,4.354,6.338,7.479,10.687,9.178l-4.38-7.588
		l-0.007,0.004c-0.048-0.087-3.523-6.13-3.573-6.217c-1.436-2.474-1.098-5.938,1.584-7.488c5.217-3.012,6.879,3.944,9.648,2.344
		c2.287-1.32,1.755-8.17,1.755-8.17l-2.241-3.885c-0.254-0.437-0.132-0.971,0.27-1.203l7.144-4.125l1.21,2.094l3.973-2.293
		c0.723-0.417,1.702-0.109,2.154,0.676c0.455,0.786,0.231,1.787-0.492,2.204l-3.973,2.295l1.966,3.404l3.974-2.294
		c0.724-0.418,1.702-0.109,2.156,0.677C63.866,45,63.642,46,62.918,46.417l-3.973,2.294l1.211,2.095l-7.147,4.127
		c-0.4,0.23-0.924,0.067-1.175-0.368l-2.167-3.754c0,0-0.064,4.841-2.79,6.381c-4.881,2.76-6.035-4.429-9.647-2.344
		c-1.396,0.807-1.44,2.785-0.803,3.894c0.382,0.661,3.139,5.412,3.534,6.117l14.312-8.262c2.277-1.316,3.562,0.234,4.424,1.729
		l0.376,0.647c0.688,1.192,0.994,2.157,0.399,3.106c0.651-0.055,1.381,0.205,2.152,1.408l-0.295-0.513l2.549-8.155l-5.076,2.931
		l-1.632-2.827l9.318-5.38l1.571,2.722l-2.536,8.147l5.514-3.184c0.725-4.638-0.064-9.544-2.592-13.923
		C62.568,33.126,49.533,29.633,39.354,35.51z M56.48,60.825l-0.193-0.335c-0.438-0.761-0.729-0.753-1.445-0.339l-3.631,2.098
		l1.208,2.093l3.852-2.224C56.808,61.809,56.861,61.483,56.48,60.825z M59.281,65.9c-0.613-1.06-0.952-1.09-1.526-0.756L54.1,67.254
		l1.526,2.641l-2.812,1.625l-4.463-7.732l-6.096,3.518l0.877,1.518l5.599-3.23l1.583,2.742l-5.598,3.23l1.975,3.421
		c4.649,0.734,9.568-0.055,13.959-2.588c4.359-2.519,7.488-6.35,9.186-10.704l-9.739,5.621L59.281,65.9z"/>
	</g>

</svg>
