<svg xmlns="http://www.w3.org/2000/svg" viewBox="0 0 100 100">
	<style>
		<!-- freezer - thin line style -->
		.white {fill:white;}
		.black {fill:black;}
		.gray {fill:#ddd;}
		.stroke-black {fill:none;stroke:#000000;stroke-width:0.75;stroke-miterlimit:10;stroke-linecap:round;stroke-linejoin:round;}
		.stroke-black-thin {fill:none;stroke:#000000;stroke-width:0.645;stroke-miterlimit:10;stroke-linecap:round;stroke-linejoin:round;}
	</style>

	<g class="freezer-walkabout">
		
		<circle id="bg" class="gray" cx="50" cy="50" r="49"/>

		<path id="walkabout" class="stroke-black" d="M92.992,49.996c0-6.023-1.239-11.757-3.475-16.96l-2.012,0.963
	c-3.415,1.507-7.459,3.755-12.196,7.192c-7.252,5.271-14.512-7.357-2.919-9.813c4.438-0.94,9.43-3.856,11.98-7.223
	C76.524,13.732,64.041,7,49.999,7C26.251,7,7,26.253,7,50.001c0,2.996,0.311,5.932,0.89,8.752l3.116-2.446h-0.004
	c5.667-3.844,16.163,2.358,15.939,6.555c-0.221,4.219-2.521,4.553-9.381,7.21c-1.923,0.744-3.337,1.59-4.301,2.283
	C20.808,84.736,34.432,92.995,50.001,93C73.749,93,93,73.748,93,49.999L92.992,49.996z M62.837,17.098
	c0.123-0.871,0.929-1.476,1.801-1.353s1.48,0.919,1.365,1.795l0,0c-0.124,0.871-0.931,1.476-1.802,1.35
	c-0.877-0.131-1.48-0.932-1.361-1.798L62.837,17.098z M59.26,15.359c0.094-0.685,0.88-1.144,1.751-1.021
	c0.871,0.119,1.497,0.786,1.408,1.467l0,0c-0.095,0.684-0.88,1.14-1.751,1.021c-0.878-0.128-1.506-0.781-1.416-1.467H59.26z
	 M55.836,14.273c0.098-0.686,0.883-1.144,1.753-1.022c0.872,0.118,1.498,0.786,1.41,1.466l0,0c-0.097,0.685-0.882,1.145-1.753,1.021
	c-0.879-0.124-1.51-0.776-1.405-1.466H55.836z M52.002,14.191c0.096-0.687,0.882-1.145,1.755-1.023
	c0.868,0.119,1.496,0.786,1.407,1.467h-0.001c-0.097,0.686-0.882,1.144-1.753,1.023c-0.878-0.118-1.499-0.77-1.409-1.46
	L52.002,14.191z M16.105,53.693c-0.096,0.688-0.881,1.145-1.753,1.023c-0.871-0.119-1.5-0.778-1.403-1.463
	c0.096-0.688,0.882-1.146,1.752-1.024c0.872,0.119,1.498,0.787,1.409,1.468h-0.005V53.693z M19.942,53.77H19.94
	c-0.097,0.686-0.88,1.144-1.752,1.021c-0.873-0.124-1.5-0.779-1.404-1.466c0.096-0.687,0.882-1.144,1.754-1.021
	c0.873,0.128,1.495,0.781,1.407,1.465H19.942z M23.362,54.864c-0.096,0.685-0.881,1.141-1.754,1.021
	c-0.87-0.126-1.5-0.78-1.402-1.467c0.096-0.687,0.88-1.144,1.753-1.021c0.871,0.118,1.499,0.771,1.409,1.462h-0.006V54.864z
	 M25.143,57.94c-0.871-0.122-1.479-0.927-1.356-1.797c0.122-0.872,0.928-1.475,1.8-1.353c0.87,0.118,1.482,0.919,1.364,1.795l0,0
	c-0.128,0.872-0.942,1.48-1.802,1.354H25.143z M26.938,60.879c-0.911-1.208-0.538-3.026,0.835-4.06
	c1.372-1.034,3.223-0.895,4.137,0.312l0,0c0.914,1.216,0.535,3.031-0.834,4.063c-1.375,1.039-3.228,0.891-4.133-0.31L26.938,60.879z
	 M52.165,73.586c-4.368,1.123-10.51,3.512-18.729,9.487c-7.253,5.271-14.512-7.355-2.922-9.812l0,0
	c5.083-1.077,10.039-2.621,12.619-9.283c2.657-6.859,2.991-9.159,7.211-9.381c5.204-0.267,13.534,15.983,1.819,18.988H52.165z
	 M56.378,53.763c-1.033,1.374-2.853,1.747-4.061,0.831c-1.208-0.913-1.351-2.762-0.315-4.133c1.034-1.374,2.851-1.749,4.063-0.835
	l0,0c1.208,0.909,1.347,2.763,0.309,4.137H56.378z M57.054,57.75c-0.87,0.123-1.675-0.484-1.797-1.357
	c-0.121-0.871,0.482-1.677,1.354-1.801l0,0c0.87-0.119,1.674,0.489,1.793,1.358c0.125,0.871-0.473,1.671-1.347,1.8H57.054z
	 M59.806,59.579c0.123,0.873-0.335,1.659-1.021,1.755c-0.688,0.096-1.341-0.529-1.465-1.403c-0.122-0.873,0.336-1.657,1.021-1.755
	h0.001c0.685-0.094,1.34,0.529,1.459,1.4L59.806,59.579z M59.428,61.595L59.428,61.595c0.687-0.096,1.35,0.535,1.469,1.409
	c0.121,0.87-0.336,1.655-1.021,1.752c-0.686,0.097-1.343-0.533-1.466-1.405C58.284,62.471,58.747,61.686,59.428,61.595
	L59.428,61.595z M59.947,68.585c-0.688,0.098-1.344-0.53-1.463-1.402c-0.125-0.869,0.331-1.656,1.019-1.751h0.001
	c0.687-0.099,1.35,0.533,1.469,1.407C61.09,67.705,60.63,68.491,59.947,68.585L59.947,68.585z M65.99,23.801
	c-0.223,4.22-2.522,4.552-9.382,7.206c-6.661,2.581-8.206,7.537-9.283,12.617c-2.455,11.591-15.083,4.332-9.811-2.919
	c5.976-8.219,8.365-14.362,9.487-18.732c3.003-11.71,19.263-3.378,18.98,1.828H65.99z M65.989,21.828
	c-0.911-1.208-0.538-3.024,0.837-4.059c1.371-1.034,3.224-0.893,4.138,0.312h-0.001c0.912,1.216,0.533,3.03-0.837,4.063
	c-1.375,1.033-3.224,0.884-4.144-0.32L65.989,21.828z"/>
	
	</g>

</svg>
