<svg xmlns="http://www.w3.org/2000/svg" viewBox="0 0 100 100">
	
	<style>
		<!-- freezer - thin line style -->
		.white {fill:white;}
		.black {fill:black;}
		.gray {fill:#ddd;}
		.stroke-black {fill:none;stroke:#000000;stroke-width:0.75;stroke-miterlimit:10;stroke-linecap:round;stroke-linejoin:round;}
		.stroke-black-thin {fill:none;stroke:#000000;stroke-width:0.645;stroke-miterlimit:10;stroke-linecap:round;stroke-linejoin:round;}
	</style>


	<circle id="bg" class="gray" cx="50" cy="50" r="49"/>
	
	<path id="circle_3_" class="stroke-black" d="M50,93"/>

	<path id="circle_2_" class="stroke-black" d="M92.6,55.7c0.2-1.9,0.4-3.7,0.4-5.7C93,26.3,73.7,7,50,7S7,26.3,7,50c0,1.5,0.1,3.1,0.2,4.6"/>

	<path id="mountains" class="stroke-black" d="M35.4,46.7l-1.9,3.3l-11-18.9L7.7,57.9l0,0.1c9.4,46.2,74.1,46.2,84.2,1.1L72.7,20.5l-6,10.1
		L55.6,12l-7,12"/>

	<path id="board" class="stroke-black" d="M65.3,86.9c-3.4,0-6.5-1.9-8.3-5c-0.8-1.3-1.5-3-2.6-5.2c-2.1-4.4-5.3-11.1-11.6-22.2
		C36.6,43.6,32.3,37.9,29.4,34c-1.5-2-2.6-3.4-3.4-4.8c-2.5-4.5-2.2-11,3.5-14.3c1.6-0.9,3.4-1.4,5.2-1.4c3.7,0,7.3,2.1,9.2,5.4
		c0.8,1.4,1.5,3.1,2.5,5.4c1.9,4.4,4.8,10.9,11,21.9C63.9,57.4,68.2,63.5,71,67.5c1.3,1.9,2.3,3.3,3,4.6c1.4,2.3,1.7,5.2,1,7.7
		c-0.7,2.5-2.4,4.5-4.8,5.8C68.7,86.5,67,86.9,65.3,86.9z"/>

	<path id="bindings" class="stroke-black" d="M52.6,45.2c0.6-1,0.8-2.1,0.5-3.3l-0.3-1.1c-0.5-1.9-2.2-3.3-4.1-3.3c-0.3,0-0.6,0-0.9,0.1
		c0,0,0,0-0.1,0c0,0-0.1,0-0.1,0l-5.5,1.4c-1.1,0.3-2.1,1-2.7,2c-0.6,1-0.8,2.1-0.5,3.3l0.3,1.1c0.5,1.9,2.2,3.3,4.2,3.3
		c0.4,0,0.7,0,1-0.1l5.5-1.4C51,46.9,52,46.2,52.6,45.2z M44,46.8c-0.2,0-0.4,0.1-0.6,0.1c-1.1,0-2.1-0.8-2.4-1.9l-0.3-1.1
		c-0.2-0.6-0.1-1.3,0.3-1.9c0.3-0.6,0.9-1,1.5-1.1l2.4-0.6c-0.3,0.8-0.3,1.7-0.1,2.6l0.2,0.9c0.2,1,0.8,1.8,1.5,2.4L44,46.8z
		 M46.9,43.3l-0.2-0.9c-0.2-0.6-0.1-1.3,0.2-1.9c0.3-0.5,0.7-0.8,1.2-1c0.2,0,0.3-0.1,0.5-0.1c1.1,0,2.1,0.8,2.4,1.9l0.2,0.9
		c0.2,0.6,0.1,1.3-0.2,1.9c-0.3,0.5-0.8,0.9-1.3,1C48.5,45.4,47.2,44.6,46.9,43.3z M63.5,58.9l-0.5-1c-0.7-1.5-2.2-2.5-3.9-2.5
		c-0.6,0-1.1,0.1-1.6,0.4c0,0-0.1,0-0.1,0.1c0,0-0.1,0-0.1,0l-5.1,2.4c-1,0.5-1.8,1.3-2.2,2.4c-0.4,1.1-0.3,2.3,0.1,3.3l0.5,1
		c0.7,1.5,2.2,2.5,3.9,2.5c0.6,0,1.2-0.1,1.8-0.4l5.1-2.4c1-0.5,1.8-1.3,2.2-2.4C64,61.1,63.9,60,63.5,58.9z M55.5,65.3
		c-0.3,0.2-0.7,0.2-1,0.2c-0.9,0-1.8-0.6-2.2-1.4l-0.5-1c-0.3-0.6-0.3-1.3-0.1-1.9c0.2-0.6,0.7-1.1,1.3-1.4l2.3-1.1
		c-0.1,0.8,0,1.7,0.4,2.5l0.4,0.8c0.4,0.9,1.1,1.6,1.9,2L55.5,65.3z M61.8,61.4c-0.2,0.6-0.6,1-1.1,1.3c-0.3,0.1-0.6,0.2-0.9,0.2
		c-0.9,0-1.8-0.6-2.2-1.5l-0.4-0.8c-0.5-1.2-0.2-2.5,0.9-3.1c0.3-0.1,0.6-0.2,0.9-0.2c0.9,0,1.8,0.6,2.2,1.4l0.4,0.8
		C62,60.1,62,60.8,61.8,61.4z"/>

</svg>
