<svg xmlns="http://www.w3.org/2000/svg" viewBox="0 0 100 100">
	
	<style>
		<!-- freezer - thin line style -->
		.white {fill:white;}
		.black {fill:black;}
		.gray {fill:#ddd;}
		.stroke-black {fill:none;stroke:#000000;stroke-width:0.75;stroke-miterlimit:10;stroke-linecap:round;stroke-linejoin:round;}
		.stroke-black-thin {fill:none;stroke:#000000;stroke-width:0.645;stroke-miterlimit:10;stroke-linecap:round;stroke-linejoin:round;}
	</style>


	<g class="freezer-skull">

		<circle id="bg" class="gray" cx="50" cy="50" r="49"/> 

		<path id="skull" class="stroke-black" d="M65,42.125c-2.5-2.25-9.499-2.792-12.5,4.125c-1.558,3.591-2,8.75,4.5,8.25
	c1.142-0.088,5.079-2.064,6.645-2.916C70,48.125,65.789,42.797,65,42.125z M44.125,42.5c-4.5-3.167-10.047-0.269-10.75,0.5
	c0,0-1.125,2.473-1.125,3.625l1.25,4.125c0,1.153,2.195,3,4.75,3c1.233,0.095,5.303,1.102,6,1c5.125-0.75,3.5-6.913,3.5-7.875
	C47.75,45.434,45.534,43.75,44.125,42.5z M50,7C26.252,7,7,26.252,7,50c0,4.662,0.751,9.146,2.124,13.35
	c0.646-2.01,2.594-3.031,5.895-3.031c2.341,0,6.826-1.725,13.442-5.152c-0.268,3.031,0.399,5.297,1.174,6.835
	c-2.215,1.185-3.656,1.957-4.316,2.312c-1.435,0.667-2.151,1.999-2.151,3.998c0,3.775-2.667,5.667-7.999,5.667
	c-0.371,0-0.691-0.055-0.966-0.158C21.91,85.38,35.063,93,50,93s28.091-7.621,35.799-19.183c-0.275,0.105-0.598,0.16-0.97,0.16
	c-5.332,0-8-1.892-8-5.667c0-1.999-0.717-3.331-2.152-3.998c-0.658-0.354-2.1-1.127-4.314-2.312
	c0.775-1.538,1.443-3.804,1.174-6.835c6.617,3.428,11.102,5.152,13.441,5.152c3.302,0,5.252,1.021,5.898,3.031
	C92.248,59.146,93,54.662,93,50C93,26.252,73.746,7,50,7z M24.145,41.074c-0.36-0.032-0.705-0.051-1.036-0.051
	c-0.619-0.11-1.449-0.053-2.485,0.171c-1.033,0.225-1.966,0.336-2.792,0.336c-3.523,0-5.284-1.963-5.284-5.887
	c0-3.928,1.76-5.89,5.284-5.89c-0.213-0.896-0.314-1.571-0.314-2.02c0-2.579,1.19-3.869,3.57-3.869c2.808,0,4.409,1.179,4.839,3.515
	C24.047,31.625,23.409,36.368,24.145,41.074z M62.174,73.84c-0.076,1.182-0.113,2.373-0.113,3.564
	c-1.675,2.403-3.567,4.23-5.682,5.481c-2.029,1.246-4.229,1.873-6.605,1.873c-5.992,0-10.174-2.789-12.551-8.365l-0.218-3.926
	c-1.163-2.667-0.417-6.472,0.214-7.737c0.453,0.352,1.935,2.96,2.25,3.453c-0.126,3.501,0.59,7.401,0.949,8.76
	c0.715,0.448,1.08,0.646,1.846,0.604c-0.167-0.742-0.314-1.617-0.469-2.327c1.047,0.366,2.51,0.392,3.663,0.083
	c-0.041-0.611-0.156-0.881-0.234-1.445c-1.571,0.183-2.881,0.159-3.668-0.348c-0.033-0.373-0.276-2.233-0.284-2.839
	c2.029,1.88,3.189,1.55,4.307,1.897c0.168,1.726,0.526,3.082,0.683,5.106c0.633-0.039,1.216-0.041,1.749,0
	c-0.012-0.59-0.03-1.244-0.09-1.783c0.957-0.017,2.023-0.089,2.929-0.098c0.563-0.021,0.668,1.396,0.59,1.704
	c0.542-0.047,1.137-0.154,1.629-0.172c0.056-0.362,0.153-0.78,0.145-1.098c0.164-1.167-0.769-1.534-0.762-1.546
	c0.8-0.338,1.052-1.17,1.033-1.992c0.01-0.173,0.006-0.712-0.005-0.799c0.19-0.063,0.376-0.126,0.558-0.191
	c0.034,0.251,0.117,1.121,0.102,1.342c1.254-0.565,3.502-1.885,3.45-1.826c-1.156,1.489-2.657,3.15-4.042,4.497
	c-0.06,0.529-0.129,1.058-0.215,1.579c4.986-0.81,4.3-1.719,5.855-2.179c-0.345-1.024,0.021-1.516,0.07-1.937
	c-0.938,0.238-2.465,2.053-3.472,2.251c0.001-0.006,0.055-0.064,0.004-0.021c1.17-1.233,2.648-3.34,3.545-4.734
	c-0.226-0.51-0.335-1.417-0.419-1.93c0.614-0.554,1.155-1.098,1.648-1.602c0.853-0.869,1.548-1.577,2.319-1.982
	c0.507,1.147,0.78,2.384,0.782,3.671C63.664,70.636,63.128,72.338,62.174,73.84z M41.372,67.976
	c0.298-2.696,0.862-4.267,2.222-4.504h0.024c0.415,0,0.616,1.798,0.736,2.872c0.186,1.67,0.394,3.513,1.279,4.329
	C43.781,70.246,42.271,69.068,41.372,67.976z M47.543,72.777c0.119,0.003,0.238,0.005,0.36,0.005c0.009,0,2.027-0.153,2.712-0.221
	c1.26-0.128,0.615,2.022,0.078,2.104c-1.038,0.05-1.838,0.031-2.928,0.101C47.755,74.102,47.555,73.44,47.543,72.777z
	 M72.964,41.841c-0.918,3.746-2.179,7.929-3.379,11.574c0.688,2.243,0.777,9.584-4.542,9.561c-3.317-0.466-5.234,2.65-7.562,4.616
	c-0.036-0.349-0.074-0.693-0.117-1.039c0.198-0.1,0.898-0.84,1.22-0.84c0.031,0.004,0.06,0.009,0.092,0.009
	c0.312,0,0.651-0.23,0.708-0.735c0.065-0.58-0.286-1.558-0.907-1.725c-0.671-0.037-1.07,0.282-1.627,0.638
	c-0.09-0.36-0.192-0.763-0.295-1.132c0.393-0.255,0.805-0.47,1.234-0.649c0.28-0.012,0.583-0.253,0.573-0.75
	c-0.006-0.57-0.37-1.368-1.035-1.383h-0.017c-0.545,0.012-1.078,0.425-1.571,0.622c-0.166-0.23-0.333-0.463-0.496-0.697
	c-0.58-1.249-4.339,1.512-4.858,2.107c-0.557,0.641-0.28,2.021-0.265,2.149c-1.109,0.539-2.01,3.241-3.164,3.251
	c-1.523,0,0.067-6.342-3.236-6.39c-2.5-0.033-3.591,3.742-3.795,4.471c-0.927-1.621-1.979-6.854-4.896-1.79
	c-0.864,1.207-5.902-2.337-4.614-9.543c-3.031-4.134-4.032-11.348-4.032-16.57c0-5.787,1.939-11.227,5.417-15.578
	c4.432-5.543,11.718-6.777,18.104-6.777c6.335,0,13.391,1.261,17.965,6.489C72.774,27.079,74.76,34.512,72.964,41.841z
	 M82.168,41.53c-0.828,0-1.761-0.111-2.793-0.336c-1.035-0.224-1.865-0.281-2.484-0.171c-0.331,0-0.678,0.019-1.035,0.051
	c0.734-4.706,0.096-9.449-1.783-13.695c0.43-2.336,2.031-3.515,4.839-3.515c2.38,0,3.571,1.29,3.571,3.869
	c0,0.449-0.103,1.124-0.314,2.02c3.523,0,5.282,1.962,5.282,5.89C87.45,39.567,85.691,41.53,82.168,41.53z"/>
	
	</g>

</svg>
