<svg xmlns="http://www.w3.org/2000/svg" viewBox="0 0 100 100">
	
	<style>
		<!-- freezer - thin line style -->
		.white {fill:white;}
		.black {fill:black;}
		.gray {fill:#ddd;}
		.stroke-black {fill:none;stroke:#000000;stroke-width:0.75;stroke-miterlimit:10;stroke-linecap:round;stroke-linejoin:round;}
		.stroke-black-thin {fill:none;stroke:#000000;stroke-width:0.645;stroke-miterlimit:10;stroke-linecap:round;stroke-linejoin:round;}
	</style>


	<g class="freezer-sheep">

		<circle id="bg" class="gray" cx="50" cy="50" r="49"/>

		<path id="freezer-sheep" class="stroke-black" d="M70.661,51.594H38.878v-0.003h-5.242v-0.025l5.123-4.512v-2.1h-8.237v2.1h4.994v0.024
			l-5.133,4.514v2.1h8.496V53.68h32.11 M15.453,50.709h5.034v-2.027h-5.034v-1.629h5.282v-2.1h-7.477v8.737h2.195V50.709z
			 M30.039,48.103L30.039,48.103l-0.001-0.555c0-1.571-0.454-2.594-2.146-2.594h-6.627v8.737h2.193v-2.27h3.451
			c0.683,0,0.9,0.301,0.9,1.219v1.051h2.195v-1.484c0-1.433-0.541-1.789-1.193-1.93v-0.024C29.82,49.961,30.039,49.273,30.039,48.103z
			 M27.902,48.332c0,0.628-0.217,0.917-0.811,0.917h-3.63v-2.124h3.43c0.696,0.005,1.01,0.147,1.01,0.917V48.332z M23.679,21.971
			c0.701-0.746,1.75-0.994,2.8-0.994c2.443,0,4.021,1.321,4.634,3.811c1.225,0.415,2.45,1.16,3.237,2.32
			c1.137-0.497,2.274-0.747,3.587-0.497c-0.35,1.242-1.924,2.403-3.15,3.397c-0.263,0.166-1.049,1.493-1.049,1.741v0.331
			c0,0,0.262,0.416,0.437,0.416c0.962,0.002,0.263-0.412,2.45-0.412c1.575,0,2.625,0.414,3.237,1.739c1.05-1.49,2.8-2.319,4.025-2.319
			c0.788,0,2.625,0.581,3.675,1.907c0.7-0.83,2.276-1.657,3.413-1.657c1.575,0,3.151,0.995,3.849,2.237
			c0.612-0.577,1.837-0.909,2.888-0.909c2.187,0,4.025,1.492,4.2,3.813c3.062,0,5.686,0.745,5.686,4.06
			c0,0.165-0.175,1.16-0.437,1.741c2.275,0.249,4.112,1.739,4.112,3.979c0,1.573-1.05,2.9-2.014,3.646
			c0.708,0.293,1.146,0.735,1.407,1.27c4.724,0.005,2.725,5.565,5.371,5.565c2.188,0,0.98-4.191,4.372-4.191l0.69-0.964v-3.726
			c0-0.417,0.307-0.753,0.691-0.753h6.831v2.009h3.799c0.206,0,0.398,0.061,0.571,0.159C92.823,26.085,73.642,7,50,7
			c-12.772,0-24.239,5.575-32.114,14.417c0.805-0.558,1.737-0.853,2.556-0.853C21.408,20.565,22.801,20.977,23.679,21.971z
			 M88.622,52.292v3.265h3.801c0.069,0,0.138,0.01,0.205,0.022c0.146-1.128,0.261-2.265,0.317-3.418
			c-0.161,0.082-0.338,0.131-0.524,0.131H88.622z M11.528,60.955c0-0.91,0.7-2.237,1.399-2.899c-0.084-0.046-0.181-0.103-0.27-0.158
			h-0.214c-1.249-0.827-2.144-2.035-2.144-3.513c0-1.161,0.611-2.32,1.574-3.315c-1.136-0.749-2.187-2.071-2.187-3.646
			c0-1.581,1.137-2.989,2.624-3.652c-0.965-0.502-1.406-1.652-1.406-2.817c0-1.577,0.788-2.902,2.012-3.647
			c-0.781-0.996-1.222-1.648-1.222-2.899c0-1.326,0.612-2.486,1.05-2.9l-0.438-0.746l-0.175-0.58
			c-0.078-0.035-0.154-0.075-0.231-0.112C8.776,36.029,7,42.806,7,50c0,10.461,3.74,20.047,9.951,27.503V64.94
			c-0.608,0.248-0.351,0.248-0.962,0.248C13.545,65.188,11.528,63.271,11.528,60.955z M16.392,23.193
			c-0.475,0.595-0.934,1.203-1.377,1.823c0.305-0.094,0.622-0.171,0.967-0.218C16.018,24.194,16.175,23.668,16.392,23.193z
			 M19.832,39.297c0.866,2.733,2.445,2.989,3.407,2.985c1.137-0.002,2.887-0.417,3.675-3.068l2.187-7.127H17.376l2.45,7.211H19.832z
			 M23.413,37.97c0.789,0,1.576-0.829,2.451-1.492l-2.188,2.569v0.58h1.397c0,0.826-0.784,1.578-1.66,1.575
			c-0.966,0.001-1.661-0.752-1.661-1.575h1.312v-0.58l-2.1-2.569C21.927,37.307,22.539,37.97,23.413,37.97z M88.649,60.326h-6.83
			c-0.384,0-0.697-0.34-0.697-0.752v-3.6l-0.747-0.966c-1.81,0.044-1.147,4.267-4.215,4.267c-3.808,0.004-2.371-5.58-5.144-5.593
			c-0.096,1.771-1.081,3.213-3.402,3.765c0.078,0.096,0.158,0.198,0.235,0.303h0.104c0.48,0.68,0.885,1.512,0.885,2.456
			c0,2.982-2.363,3.977-5.25,3.977v13.843c0,1.407-1.137,2.485-2.626,2.485c-1.491,0-2.628-1.08-2.628-2.485v-9.2
			c-1.22-0.249-2.712-0.419-3.238-1.74c-0.873,0.165-1.661,1.324-1.661,2.651v8.289c0,1.407-1.138,2.485-2.625,2.485
			c-1.492,0-2.628-1.08-2.628-2.485v-9.449c-0.44-0.339-0.784-0.75-1.221-1.077c-0.788,1.077-2.275,1.657-3.675,1.657
			c-1.392-0.001-2.618-0.584-3.58-1.491c-0.611,0.744-1.837,1.491-3.499,1.491c-2.458-0.001-2.978-0.909-3.239-1.491h-0.175v10.36
			c0,1.407-1.137,2.485-2.625,2.485c-1.491,0-2.627-1.079-2.627-2.485v-9.034c-1.051-0.411-1.398-0.583-2.273-1.492
			c-0.962,1.077-1.837,1.327-3.062,1.492v9.044c0,1.368-1.07,2.416-2.496,2.477C27.479,88.229,38.182,93,50,93
			c20.899,0,38.312-14.917,42.188-34.682h-3.539V60.326z"/>

	</g>

</svg>
