<svg xmlns="http://www.w3.org/2000/svg" viewBox="0 0 100 100">
	
	<style>
		<!-- freezer - thin line style -->
		.white {fill:white;}
		.black {fill:black;}
		.gray {fill:#ddd;}
		.stroke-black {fill:none;stroke:#000000;stroke-width:0.75;stroke-miterlimit:10;stroke-linecap:round;stroke-linejoin:round;}
		.stroke-black-thin {fill:none;stroke:#000000;stroke-width:0.645;stroke-miterlimit:10;stroke-linecap:round;stroke-linejoin:round;}
	</style>

	<g class="freezer-she-down">
		
		<circle id="bg" class="gray" cx="50" cy="50" r="49"/>

		<path d="M50,7.75c11.186,0,21.728,4.33,29.684,12.192c7.726,7.635,12.153,17.746,12.529,28.562
		c-0.221-0.024-0.449-0.037-0.686-0.037c-0.931,0-1.94,0.196-2.845,0.55c-2.473,0.97-3.639,2.814-3.032,4.774
		c-0.762-1.029-1.793-1.581-3.001-1.581c-0.291,0-0.594,0.032-0.92,0.1c-0.926,0.217-1.712,0.454-2.405,0.726
		c-3.522,1.382-4.222,3.674-4.838,5.695c-0.602,1.973-1.121,3.677-4.032,4.818c-0.791,0.276-1.475,0.411-2.092,0.411
		c-0.668,0-1.214-0.152-1.846-0.329c-0.749-0.209-1.598-0.445-2.765-0.445c-1.581,0-3.41,0.428-5.771,1.354
		c-7.469,3.124-7.058,6.564-6.534,7.898c1,2.546,4.727,4.394,8.861,4.394c1.261,0,2.463-0.178,3.553-0.521l0.218-0.062
		c0.882-0.248,2.946-0.829,4.718-1.523c0.643-0.253,1.306-0.515,1.8-0.845c0.987-0.37,2.291-0.55,3.979-0.55
		c1.337,0,2.695,0.108,4.009,0.213c0.803,0.063,1.561,0.123,2.216,0.15c0.067,0.006,0.136,0.009,0.205,0.009
		c0.327,0,0.688-0.066,0.992-0.185c0.875-0.344,1.664-1.105,2.347-2.143c0.022,0.185,0.054,0.375,0.13,0.572
		c0.184,0.469,0.509,0.848,0.93,1.102C77.559,85.091,64.395,92.25,50,92.25c-14.395,0-27.56-7.159-35.404-19.2
		c0.421-0.254,0.747-0.633,0.933-1.104c0.075-0.194,0.106-0.384,0.129-0.568c0.683,1.037,1.473,1.798,2.348,2.143
		c0.307,0.118,0.657,0.183,0.986,0.183c0.069,0,0.138-0.003,0.171-0.007c0.689-0.029,1.448-0.089,2.251-0.153
		c1.314-0.104,2.672-0.213,4.009-0.213c1.688,0,2.99,0.181,3.978,0.551c0.497,0.332,1.166,0.596,1.842,0.861
		c1.724,0.676,3.787,1.257,4.667,1.505l0.206,0.059c1.109,0.349,2.312,0.526,3.573,0.526c4.136,0,7.863-1.848,8.862-4.394
		c0.525-1.334,0.94-4.774-6.548-7.904c-2.346-0.919-4.175-1.348-5.755-1.348c-1.167,0-2.016,0.237-2.765,0.446
		c-0.632,0.176-1.177,0.328-1.847,0.328c-0.616,0-1.3-0.135-2.065-0.401c-2.937-1.151-3.457-2.855-4.059-4.828
		c-0.617-2.022-1.316-4.314-4.836-5.695c-0.689-0.271-1.454-0.502-2.428-0.729c-0.307-0.063-0.61-0.096-0.9-0.096
		c-1.204,0-2.233,0.548-2.995,1.572c0.604-1.944-0.56-3.793-3.036-4.765c-0.905-0.355-1.917-0.55-2.847-0.55
		c-0.235,0-0.463,0.012-0.683,0.036c0.375-10.816,4.803-20.927,12.529-28.562C28.272,12.08,38.814,7.75,50,7.75 M65.665,56.254
		c0.151,0,0.304-0.012,0.457-0.035c-0.231,0.316-0.385,0.677-0.451,1.068c-0.151,0.888,0.149,1.916,0.845,2.895
		c0.784,1.102,2.184,2.213,3.542,2.213c0.479,0,0.908-0.134,1.277-0.396c1.355-0.964,1.132-2.952,0.213-4.532
		c0.04,0.002,0.081,0.003,0.121,0.003c0.46,0,0.896-0.136,1.261-0.396c0.26-0.187,0.457-0.4,0.66-0.715
		c0.506-0.787,0.529-1.689,0.072-2.448c0.322-0.051,0.63-0.176,0.907-0.371c0.14-0.102,0.396-0.286,0.577-0.607
		c0.483-0.747,0.477-1.607-0.022-2.311c-0.05-0.069-0.103-0.135-0.159-0.198c0.113-0.05,0.221-0.111,0.321-0.183
		c0.178-0.124,0.302-0.273,0.411-0.404l0.068-0.081c0.022-0.026,0.042-0.053,0.061-0.082c0.437-0.679,0.43-1.459-0.018-2.085
		c-0.109-0.155-0.241-0.293-0.389-0.413c0.042-0.025,0.082-0.051,0.121-0.08c0.176-0.124,0.299-0.271,0.408-0.402l0.068-0.082
		c0.021-0.025,0.041-0.052,0.06-0.08c0.439-0.68,0.433-1.462-0.017-2.088c-0.387-0.546-1.039-0.885-1.7-0.885
		c-0.392,0-0.766,0.119-1.09,0.349c-0.007,0.006-0.015,0.011-0.022,0.017c-0.047-0.735-0.226-1.419-0.61-1.959
		c-0.188-0.267-0.459-0.507-0.711-0.64c-0.441-0.262-0.944-0.537-1.476-0.827c-1.685-0.919-3.774-2.06-4.761-3.39
		c-0.187-0.428-0.504-0.872-0.81-1.3c-0.803-1.13-1.856-2.336-2.307-2.852l-0.104-0.119c-1.646-2.009-4.524-3.412-6.998-3.412
		c-1.028,0-1.924,0.25-2.587,0.723c-0.917,0.652-2.672,2.721,0.821,7.86c2.304,3.24,3.822,3.72,5.043,4.106
		c0.847,0.268,1.459,0.461,2.309,1.565c1.309,1.839,0.951,3.071,0.536,4.499c-0.451,1.554-0.962,3.314,0.724,5.685
		c0.325,0.458,0.714,0.92,1.236,1.467C64.162,55.935,64.892,56.254,65.665,56.254 M34.323,37.109
		c-0.987,1.331-3.077,2.472-4.762,3.391c-0.531,0.29-1.034,0.564-1.444,0.81c-0.281,0.15-0.551,0.388-0.74,0.654
		c-0.385,0.541-0.564,1.226-0.611,1.962c-0.009-0.007-0.019-0.015-0.029-0.021c-0.318-0.225-0.692-0.344-1.083-0.344
		c-0.661,0-1.312,0.339-1.699,0.883c-0.45,0.629-0.456,1.411-0.018,2.09c0.018,0.027,0.037,0.054,0.058,0.078l0.063,0.076
		c0.116,0.139,0.235,0.283,0.411,0.408c0.041,0.029,0.082,0.056,0.124,0.081c-0.147,0.119-0.279,0.257-0.389,0.412
		c-0.446,0.628-0.452,1.408-0.016,2.085c0.018,0.028,0.038,0.054,0.059,0.079l0.062,0.074c0.118,0.142,0.24,0.288,0.415,0.41
		c0.103,0.073,0.213,0.136,0.327,0.186c-0.057,0.063-0.11,0.13-0.16,0.2c-0.499,0.701-0.506,1.562-0.022,2.311
		c0.182,0.319,0.438,0.505,0.584,0.611c0.271,0.192,0.577,0.316,0.898,0.366c-0.456,0.759-0.433,1.66,0.074,2.45
		c0.2,0.311,0.397,0.523,0.662,0.715c0.362,0.258,0.797,0.394,1.258,0.394c0.04,0,0.081-0.001,0.121-0.003
		c-0.918,1.579-1.143,3.568,0.211,4.53c0.37,0.265,0.8,0.398,1.279,0.398c1.359,0,2.759-1.112,3.542-2.214
		c0.695-0.978,0.995-2.005,0.844-2.893c-0.066-0.391-0.218-0.75-0.452-1.068c0.154,0.023,0.307,0.035,0.459,0.035
		c0.772,0,1.502-0.319,2.124-0.937c0.494-0.517,0.894-0.991,1.223-1.452c1.686-2.37,1.174-4.131,0.723-5.685
		c-0.415-1.428-0.772-2.661,0.519-4.477c0.867-1.126,1.479-1.32,2.326-1.588c1.221-0.386,2.739-0.867,5.053-4.119
		c3.483-5.127,1.728-7.195,0.812-7.846c-0.665-0.473-1.56-0.724-2.589-0.724c-2.474,0-5.351,1.403-6.983,3.396l-0.114,0.13
		c-0.451,0.516-1.506,1.723-2.314,2.861C34.824,36.243,34.509,36.684,34.323,37.109 M72.94,46.775
		c0.065,0.069,0.135,0.133,0.208,0.192c-0.042,0.025-0.083,0.052-0.123,0.081c-0.074,0.052-0.138,0.108-0.196,0.166
		C72.867,47.071,72.905,46.924,72.94,46.775 M27.073,46.775c0.036,0.149,0.073,0.296,0.111,0.439
		c-0.058-0.057-0.121-0.113-0.195-0.166c-0.041-0.029-0.082-0.056-0.125-0.082C26.938,46.908,27.008,46.844,27.073,46.775
		 M72.219,49.077c0.055,0.217,0.15,0.427,0.289,0.624c0.012,0.016,0.023,0.031,0.035,0.047c-0.194,0.067-0.381,0.164-0.558,0.29
		c-0.068,0.05-0.165,0.121-0.268,0.218C71.904,49.853,72.072,49.457,72.219,49.077 M27.794,49.078
		c0.147,0.379,0.315,0.775,0.501,1.177c-0.104-0.099-0.206-0.173-0.284-0.23c-0.168-0.119-0.35-0.212-0.54-0.278
		c0.013-0.017,0.025-0.033,0.037-0.05C27.646,49.501,27.741,49.293,27.794,49.078 M71.081,51.514
		c-0.056,0.389,0.005,0.779,0.184,1.14c-0.396,0.029-0.771,0.162-1.092,0.391c-0.027,0.02-0.053,0.039-0.078,0.059
		C70.451,52.596,70.781,52.059,71.081,51.514 M28.933,51.515c0.3,0.544,0.63,1.082,0.986,1.589
		c-0.027-0.021-0.055-0.042-0.083-0.062c-0.317-0.226-0.69-0.358-1.087-0.388C28.927,52.293,28.989,51.902,28.933,51.515
		 M30.68,54.087c0.33,0.385,0.677,0.736,1.038,1.04c-0.278,0.008-0.557,0.061-0.833,0.155C30.927,54.885,30.859,54.477,30.68,54.087
		 M69.332,54.088c-0.178,0.39-0.245,0.797-0.203,1.195c-0.276-0.096-0.556-0.148-0.834-0.155
		C68.655,54.824,69.002,54.473,69.332,54.088 M13.681,54.97c-0.029,0.068-0.057,0.137-0.084,0.206
		c-1.342,3.422-0.852,9.537,0.844,13.807c-0.044-0.021-0.089-0.04-0.135-0.058c-0.292-0.114-0.604-0.173-0.929-0.173
		c-0.057,0-0.114,0.002-0.17,0.006c0.122-0.16,0.222-0.337,0.297-0.528c0.091-0.234,0.117-0.461,0.142-0.68l0.018-0.148
		c0.004-0.033,0.006-0.066,0.006-0.1c-0.007-0.973-0.525-1.756-1.387-2.096c-0.145-0.057-0.298-0.101-0.455-0.129
		c0.273-0.258,0.491-0.576,0.635-0.944c0.084-0.213,0.223-0.565,0.193-1.014c-0.004-1.088-0.584-1.965-1.561-2.353
		c-0.003-0.001-0.007-0.003-0.01-0.004c0.553-0.307,0.985-0.776,1.214-1.359c0.147-0.373,0.206-0.72,0.203-1.196
		c-0.006-0.879-0.346-1.639-0.944-2.162C12.434,55.929,13.156,55.563,13.681,54.97 M86.317,54.974
		c0.522,0.589,1.246,0.955,2.123,1.071c-0.597,0.522-0.937,1.282-0.941,2.163c-0.002,0.354,0.021,0.745,0.201,1.195
		c0.229,0.582,0.66,1.053,1.214,1.359c-0.004,0.002-0.009,0.004-0.014,0.006c-0.972,0.384-1.553,1.261-1.558,2.351
		c-0.03,0.458,0.116,0.821,0.193,1.013c0.146,0.369,0.363,0.688,0.637,0.944c-0.158,0.029-0.312,0.073-0.458,0.131
		c-0.861,0.34-1.379,1.123-1.385,2.096c0,0.034,0.002,0.068,0.007,0.103l0.019,0.157c0.025,0.214,0.052,0.436,0.142,0.669
		c0.075,0.19,0.175,0.367,0.296,0.526c-0.056-0.004-0.112-0.006-0.169-0.006c-0.325,0-0.638,0.059-0.931,0.173
		c-0.046,0.019-0.092,0.038-0.136,0.059c1.695-4.27,2.186-10.386,0.843-13.807C86.373,55.107,86.346,55.04,86.317,54.974 M50,7
		C26.444,7,7.321,25.946,7.015,49.43c0.435-0.144,0.932-0.212,1.456-0.212c0.842,0,1.752,0.177,2.574,0.499
		c1.871,0.734,3.252,2.182,2.519,4.055c-0.481,1.116-1.488,1.563-2.632,1.563c-0.688,0-1.425-0.161-2.127-0.437
		c-0.574-0.225-1.125-0.531-1.611-0.889c0.095,1.025,0.228,2.038,0.393,3.04c0.409-0.647,1.185-0.982,1.953-0.982
		c0.31,0,0.618,0.055,0.9,0.165c0.724,0.285,1.307,0.931,1.314,1.979c0.002,0.349-0.032,0.614-0.151,0.917
		c-0.332,0.844-1.224,1.281-2.104,1.281c-0.313,0-0.625-0.055-0.91-0.167c-0.142-0.056-0.272-0.138-0.4-0.222
		c0.146,0.607,0.304,1.21,0.475,1.807c0.376-0.339,0.876-0.508,1.376-0.508c0.268,0,0.536,0.049,0.786,0.146
		c0.604,0.239,1.089,0.779,1.083,1.681c0.025,0.289-0.069,0.529-0.141,0.711c-0.314,0.803-1.076,1.193-1.842,1.193
		c-0.071,0-0.142-0.003-0.213-0.01c0.147,0.395,0.304,0.784,0.462,1.173c0.32-0.289,0.751-0.432,1.177-0.432
		c0.228,0,0.454,0.041,0.659,0.122c0.543,0.214,0.906,0.703,0.911,1.402c-0.034,0.264-0.044,0.469-0.115,0.65
		c-0.243,0.616-0.822,0.932-1.415,0.978c0.2,0.407,0.407,0.811,0.62,1.21c0.323-0.431,0.85-0.643,1.367-0.643
		c0.226,0,0.451,0.041,0.655,0.121c0.543,0.213,0.907,0.703,0.912,1.4c-0.033,0.266-0.044,0.469-0.115,0.651
		c-0.238,0.604-0.798,0.919-1.376,0.976C21.038,84.863,34.566,93,50,93c15.433,0,28.961-8.137,36.547-20.35
		c-0.578-0.057-1.139-0.372-1.375-0.976c-0.07-0.182-0.081-0.385-0.115-0.651c0.004-0.697,0.369-1.188,0.911-1.4
		c0.205-0.08,0.43-0.121,0.656-0.121c0.517,0,1.043,0.211,1.366,0.642c0.212-0.399,0.419-0.802,0.619-1.209
		c-0.593-0.046-1.172-0.361-1.414-0.978c-0.07-0.182-0.08-0.385-0.115-0.65c0.004-0.699,0.368-1.188,0.91-1.402
		c0.206-0.081,0.432-0.122,0.66-0.122c0.425,0,0.857,0.143,1.177,0.432c0.158-0.389,0.314-0.778,0.462-1.173
		c-0.07,0.007-0.142,0.01-0.213,0.01c-0.765,0-1.526-0.391-1.842-1.193c-0.073-0.182-0.166-0.422-0.142-0.711
		c-0.005-0.902,0.479-1.442,1.083-1.681c0.249-0.097,0.518-0.146,0.786-0.146c0.501,0,1.001,0.169,1.377,0.508
		c0.171-0.597,0.329-1.198,0.475-1.806c-0.128,0.084-0.259,0.165-0.4,0.221c-0.285,0.112-0.597,0.167-0.91,0.167
		c-0.881,0-1.773-0.437-2.104-1.281c-0.121-0.303-0.151-0.568-0.149-0.917c0.006-1.049,0.587-1.694,1.312-1.979
		c0.283-0.11,0.591-0.164,0.9-0.164c0.77,0,1.545,0.335,1.954,0.982c0.165-1.003,0.298-2.018,0.393-3.043
		c-0.486,0.357-1.038,0.664-1.612,0.889c-0.703,0.276-1.44,0.438-2.128,0.438c-1.144,0-2.15-0.448-2.632-1.565
		c-0.733-1.871,0.648-3.319,2.521-4.054c0.821-0.322,1.729-0.499,2.571-0.499c0.524,0,1.022,0.068,1.458,0.213
		C92.679,25.947,73.555,7,50,7L50,7z M65.665,55.504c-0.554,0-1.091-0.217-1.582-0.705c-0.47-0.492-0.845-0.935-1.153-1.369
		c-2.966-4.17,1.764-5.935-1.26-10.184c-2.357-3.062-3.574-0.359-7.352-5.671c-2.498-3.675-2.336-5.863-0.998-6.814
		c0.559-0.397,1.311-0.583,2.152-0.584c2.122,0,4.815,1.182,6.418,3.137c0.317,0.366,1.512,1.709,2.379,2.929
		c0.31,0.434,0.617,0.865,0.762,1.235c1.371,1.928,4.562,3.332,6.512,4.492c0.191,0.102,0.371,0.27,0.482,0.428
		c1.681,2.36-1.326,10.127-4.592,12.45C66.849,55.264,66.248,55.504,65.665,55.504L65.665,55.504z M34.35,55.505
		c-0.583,0-1.184-0.24-1.77-0.657c-3.266-2.322-6.272-10.09-4.592-12.449c0.112-0.158,0.291-0.326,0.482-0.428
		c1.95-1.16,5.141-2.564,6.512-4.492c0.145-0.37,0.452-0.801,0.761-1.235c0.867-1.22,2.062-2.563,2.38-2.929
		c1.603-1.956,4.294-3.137,6.417-3.137c0.843,0,1.595,0.187,2.154,0.584c1.337,0.951,1.499,3.139-0.998,6.814
		c-3.778,5.311-4.996,2.609-7.352,5.671c-3.023,4.249,1.706,6.015-1.259,10.185c-0.309,0.433-0.684,0.877-1.154,1.368
		C35.439,55.288,34.903,55.505,34.35,55.505L34.35,55.505z M74.46,46.69c-0.428,0-0.849-0.232-1.089-0.569
		c-0.252-0.354-0.278-0.809,0.004-1.247c0.128-0.151,0.219-0.274,0.336-0.359c0.202-0.143,0.427-0.206,0.649-0.206
		c0.429,0,0.85,0.232,1.089,0.569c0.254,0.354,0.281,0.809-0.002,1.247c-0.129,0.151-0.219,0.274-0.338,0.358
		C74.907,46.627,74.683,46.69,74.46,46.69L74.46,46.69z M25.553,46.69c-0.223,0-0.447-0.063-0.649-0.207
		c-0.118-0.084-0.209-0.207-0.337-0.358c-0.283-0.438-0.255-0.893-0.002-1.247c0.239-0.337,0.66-0.569,1.088-0.569
		c0.223,0,0.448,0.063,0.65,0.206c0.117,0.085,0.208,0.209,0.336,0.359c0.282,0.437,0.255,0.893,0.003,1.247
		C26.402,46.458,25.981,46.69,25.553,46.69L25.553,46.69z M74.208,49.831c-0.429,0-0.851-0.231-1.09-0.567
		c-0.251-0.355-0.278-0.81,0.003-1.247c0.129-0.15,0.221-0.274,0.338-0.357c0.202-0.144,0.427-0.207,0.65-0.207
		c0.428,0,0.849,0.232,1.088,0.569c0.252,0.353,0.279,0.808-0.002,1.246c-0.129,0.151-0.219,0.274-0.338,0.357
		C74.655,49.769,74.431,49.831,74.208,49.831L74.208,49.831z M25.806,49.831c-0.223,0-0.447-0.062-0.649-0.206
		c-0.119-0.083-0.21-0.206-0.338-0.357c-0.282-0.438-0.254-0.892-0.003-1.246c0.24-0.336,0.661-0.568,1.089-0.568
		c0.223,0,0.448,0.063,0.65,0.207c0.117,0.084,0.208,0.207,0.338,0.357c0.281,0.437,0.253,0.892,0.003,1.247
		C26.657,49.6,26.235,49.831,25.806,49.831L25.806,49.831z M73.332,53.187c-0.501,0-0.989-0.268-1.28-0.676
		c-0.28-0.393-0.362-0.928,0.009-1.487c0.103-0.191,0.26-0.302,0.377-0.388c0.248-0.176,0.522-0.254,0.793-0.255
		c0.502,0,0.991,0.268,1.283,0.676c0.279,0.394,0.362,0.93-0.01,1.487c-0.102,0.19-0.259,0.304-0.375,0.388
		C73.879,53.108,73.604,53.187,73.332,53.187L73.332,53.187z M26.681,53.187c-0.271,0-0.547-0.078-0.796-0.255
		c-0.116-0.084-0.274-0.199-0.375-0.388c-0.372-0.558-0.289-1.094-0.009-1.487c0.292-0.408,0.781-0.675,1.282-0.676
		c0.271,0,0.545,0.079,0.794,0.255c0.117,0.085,0.275,0.196,0.376,0.388c0.371,0.56,0.289,1.095,0.009,1.487
		C27.671,52.919,27.182,53.187,26.681,53.187L26.681,53.187z M68.363,64.711c0.641,0,1.385-0.12,2.338-0.453
		c6.52-2.556,2.498-8.014,8.896-10.523c0.664-0.26,1.411-0.484,2.303-0.693c0.262-0.054,0.512-0.08,0.749-0.08
		c1.458,0,2.462,0.983,3.053,2.489c1.966,5.01-0.359,15.948-3.979,17.37c-0.204,0.079-0.467,0.133-0.718,0.133
		c-0.047,0-0.094-0.002-0.14-0.006c-1.775-0.075-4.086-0.366-6.29-0.366c-1.576,0-3.098,0.148-4.331,0.632
		c-0.436,0.311-1.1,0.569-1.764,0.831c-1.871,0.733-4.199,1.367-4.826,1.546c-1.07,0.337-2.212,0.492-3.347,0.492
		c-3.664,0-7.259-1.614-8.163-3.918c-0.806-2.053,0.621-4.63,6.125-6.932c2.529-0.991,4.215-1.296,5.482-1.296
		C65.772,63.937,66.732,64.711,68.363,64.711L68.363,64.711z M18.992,72.953c-0.25,0-0.512-0.054-0.716-0.133
		c-3.621-1.422-5.947-12.36-3.981-17.37c0.591-1.506,1.595-2.489,3.053-2.489c0.238,0,0.487,0.026,0.749,0.08
		c0.892,0.209,1.641,0.432,2.305,0.693c6.398,2.509,2.377,7.967,8.896,10.523c0.954,0.333,1.698,0.453,2.339,0.453
		c1.631,0,2.591-0.774,4.611-0.774c1.268,0,2.953,0.305,5.482,1.296c5.506,2.302,6.932,4.879,6.124,6.932
		c-0.904,2.304-4.5,3.918-8.164,3.918c-1.135,0-2.277-0.155-3.347-0.492c-0.626-0.179-2.955-0.812-4.825-1.546
		c-0.665-0.262-1.328-0.521-1.764-0.831c-1.232-0.483-2.754-0.633-4.329-0.633c-2.205,0-4.516,0.292-6.292,0.367
		C19.086,72.951,19.04,72.953,18.992,72.953L18.992,72.953z M71.669,56.719c-0.58,0-1.174-0.315-1.51-0.787
		c-0.336-0.473-0.435-1.115-0.015-1.77c0.143-0.217,0.271-0.369,0.467-0.51c0.249-0.177,0.535-0.256,0.825-0.256
		c0.579,0,1.173,0.315,1.509,0.787c0.336,0.471,0.436,1.113,0.014,1.77c-0.141,0.218-0.27,0.369-0.467,0.511
		C72.243,56.641,71.958,56.719,71.669,56.719L71.669,56.719z M28.345,56.719c-0.29,0-0.575-0.078-0.824-0.255
		c-0.196-0.142-0.326-0.293-0.467-0.511c-0.421-0.657-0.322-1.299,0.014-1.77c0.335-0.472,0.929-0.787,1.509-0.787
		c0.29,0,0.576,0.079,0.825,0.256c0.195,0.141,0.325,0.293,0.466,0.51c0.422,0.654,0.322,1.297-0.014,1.77
		C29.519,56.403,28.924,56.719,28.345,56.719L28.345,56.719z M29.956,61.645c-0.306,0-0.593-0.08-0.843-0.259
		c-1.062-0.755-0.683-2.618,0.267-3.956c0.628-0.883,1.509-1.554,2.406-1.554c0.342,0,0.688,0.098,1.021,0.319
		c1.22,0.865,0.947,2.332,0.08,3.551C32.138,60.8,30.949,61.645,29.956,61.645L29.956,61.645z M70.058,61.645
		c-0.992,0-2.181-0.844-2.931-1.897c-0.867-1.22-1.141-2.687,0.079-3.55c0.335-0.222,0.68-0.32,1.023-0.32
		c0.896,0,1.776,0.671,2.404,1.553c0.95,1.338,1.328,3.202,0.267,3.957C70.65,61.565,70.363,61.645,70.058,61.645L70.058,61.645z"/>
	</g>	
</svg>
