<svg xmlns="http://www.w3.org/2000/svg" viewBox="0 0 680 680">
	<style>
		.white{fill:white;}
		.black{fill:black;}
		.gray{fill:#ddd;}
	</style>

	<g id="Layer_3">
		<circle cx="340" cy="340" r="340"/>
	</g>
	
	<g id="Layer_1">
		<path class="1" id="starFULL_3_" d="M586.629,499.979l-78.867-157.111l84.707-154.052c1.885-3.438,1.664-7.65-0.58-10.866
			c-2.252-3.222-6.129-4.878-10.002-4.287l-173.792,26.463L287.76,71.952c-2.686-2.855-6.759-3.943-10.512-2.804
			c-3.753,1.142-6.529,4.316-7.168,8.186l-28.54,173.475L82.458,325.644c-3.549,1.669-5.844,5.215-5.916,9.134
			c-0.073,3.92,2.085,7.544,5.57,9.346l156.16,80.746l22.013,174.41c0.49,3.896,3.148,7.172,6.856,8.451
			c0.037,0.018,0.075,0.027,0.114,0.039c3.679,1.228,7.735,0.283,10.496-2.444l133.434-119.194l164.301,28.596
			c3.85,0.732,7.787-0.784,10.152-3.91C588.004,507.684,588.387,503.486,586.629,499.979z"/>
		
		<path class="gray" id="starFULL_1_" d="M280.243,68.703c2.803,0,5.538,1.145,7.517,3.249l120.334,128.174l173.792-26.463
			c0.521-0.08,1.04-0.118,1.557-0.118c3.328,0,6.496,1.616,8.445,4.405c2.244,3.216,2.465,7.428,0.58,10.866l-84.707,154.052
			l78.867,157.111c1.758,3.508,1.375,7.705-0.99,10.838c-1.971,2.604-5.033,4.092-8.227,4.092c-0.639,0-1.284-0.06-1.926-0.182
			l-164.301-28.596L277.752,605.325c-1.96,1.937-4.572,2.974-7.239,2.974c-1.09,0-2.189-0.173-3.256-0.529
			c-0.04-0.012-0.077-0.021-0.114-0.039c-3.708-1.279-6.366-4.555-6.856-8.451l-22.013-174.41l-156.16-80.746
			c-3.485-1.802-5.644-5.426-5.57-9.346c0.072-3.919,2.367-7.464,5.916-9.134l159.081-74.835l28.54-173.475
			c0.639-3.87,3.415-7.044,7.168-8.186C278.235,68.849,279.243,68.703,280.243,68.703 M280.245,48.208L280.245,48.208h-0.001
			c-3.032,0-6.041,0.447-8.944,1.327c-11.306,3.438-19.516,12.809-21.44,24.458L223.066,236.85L73.734,307.099
			c-10.691,5.029-17.467,15.491-17.683,27.304c-0.22,11.8,6.16,22.503,16.65,27.927l146.587,75.796l20.664,163.721
			c1.457,11.577,9.139,21.164,20.092,25.113c0.337,0.125,0.68,0.241,1.029,0.351c3.055,0.985,6.229,1.484,9.44,1.484
			c7.938,0,15.432-2.991,21.176-8.438l125.753-112.334l154.408,26.874c1.831,0.336,3.701,0.507,5.562,0.507
			c9.595,0,18.78-4.568,24.57-12.221c7.122-9.435,8.255-21.837,2.97-32.386l-74.041-147.495l79.517-144.611
			c5.684-10.367,5.016-22.8-1.732-32.469c-5.768-8.252-15.205-13.171-25.252-13.171c-1.551,0-3.114,0.119-4.648,0.353
			l-163.134,24.841L302.702,57.924C296.89,51.746,288.709,48.209,280.245,48.208L280.245,48.208z"/>
		
		<path class="j" d="M220.951,454.639c-10.287,6.133-17.958,17.756-17.958,36.92c0.015,36.887,11.496,68.003,34.159,92.625l-15.907-129.706
			C221.148,454.535,221.047,454.582,220.951,454.639z M479.217,134.252c0-1.125-0.042-2.207-0.115-3.26
			c-0.027-0.418-0.067-0.825-0.119-1.25l-0.006-0.08c-0.064-0.667-0.137-1.331-0.229-1.964c-0.022-0.15-0.047-0.303-0.072-0.455
			c-0.059-0.33-0.123-0.646-0.195-0.997c-0.1-0.561-0.213-1.127-0.33-1.663c-0.026-0.127-0.057-0.251-0.088-0.377
			c-0.127-0.504-0.265-0.984-0.422-1.491c-0.148-0.53-0.303-1.062-0.474-1.562c-0.052-0.165-0.11-0.328-0.171-0.491
			c-0.178-0.488-0.365-0.945-0.561-1.398c-0.23-0.598-0.48-1.184-0.75-1.747c-0.039-0.08-0.074-0.158-0.115-0.238
			c-0.217-0.438-0.443-0.859-0.692-1.298c-0.204-0.387-0.561-1.061-1.077-1.863c-0.455-0.717-0.856-1.267-1.062-1.541
			c-0.377-0.532-0.767-1.052-1.179-1.558c-0.388-0.478-0.8-0.939-1.237-1.403c-0.527-0.582-1.08-1.151-1.666-1.702
			c-0.398-0.371-0.814-0.731-1.254-1.093c-0.047-0.039-0.085-0.072-0.108-0.091c-0.546-0.466-1.112-0.921-1.679-1.33
			c-0.494-0.364-1.009-0.706-1.42-0.966c-0.593-0.397-1.185-0.771-1.949-1.209c-0.547-0.306-1.122-0.6-1.728-0.891
			c-0.581-0.295-1.165-0.572-1.716-0.806c-0.609-0.264-1.228-0.501-1.792-0.702c-0.63-0.237-1.253-0.46-1.933-0.671
			c-0.521-0.162-1.063-0.312-1.658-0.465c-0.064-0.017-0.221-0.059-0.281-0.074c-0.578-0.152-1.148-0.294-1.572-0.382
			c-0.578-0.129-1.182-0.239-1.918-0.36c-0.521-0.09-1.035-0.175-1.576-0.249c-0.088-0.016-0.176-0.026-0.267-0.039
			c-0.485-0.062-0.989-0.113-1.499-0.159l-0.217-0.021c-0.573-0.053-1.141-0.1-1.736-0.137c-0.504-0.03-1.037-0.049-1.65-0.06
			c-0.488-0.022-0.978-0.033-1.498-0.033l-100.136,0.002h-0.115c-0.644,0.009-1.281,0.044-1.914,0.093l61.013,65.588l0.001,325.108
			c0.239,23.484-8.435,40.557-21.318,51.096l-85.244,79.884l0.183,0.06c0.063,0.017,0.13,0.036,0.194,0.061l2.946,0.872
			c0.071,0.019,0.213,0.062,0.28,0.079c0.574,0.164,1.149,0.328,1.815,0.506l0.197,0.051c0.457,0.118,0.909,0.237,1.367,0.353
			c0.536,0.138,1.072,0.278,1.666,0.425c0.542,0.128,1.081,0.26,1.626,0.386c0.564,0.13,1.13,0.264,1.7,0.383
			c0.065,0.017,0.136,0.033,0.203,0.048l1.369,0.29c0.621,0.13,1.246,0.248,1.872,0.371c0.608,0.122,1.223,0.238,1.913,0.359
			l1.436,0.251c0.486,0.082,0.974,0.163,1.461,0.239l0.197,0.031c0.489,0.078,0.979,0.158,1.471,0.228l0.362,0.057
			c0.153,0.025,0.308,0.046,0.458,0.067l0.439,0.06c0.321,0.047,0.643,0.094,0.967,0.131c0.403,0.057,0.808,0.11,1.213,0.162
			l0.414,0.053c0.168,0.021,0.334,0.041,0.501,0.059l1.471,0.172c0.602,0.067,1.208,0.126,1.812,0.188
			c0.642,0.063,1.265,0.128,1.739,0.165c0.592,0.055,1.186,0.098,1.787,0.148c0.617,0.048,1.23,0.096,1.855,0.141
			c0.066,0.003,0.136,0.006,0.204,0.009l1.567,0.093c0.607,0.038,1.221,0.07,1.829,0.093c0.526,0.027,1.048,0.043,1.577,0.064
			l0.292,0.01c0.083,0.005,0.165,0.007,0.246,0.01l5.12,0.104c0.096,0,0.291,0.001,0.389,0.001l0.484,0.004
			c0.86,0,1.717-0.005,2.443-0.019c40.023-0.52,73.529-14.775,99.594-42.365l1.789-1.89c23.21-24.518,35.323-40.188,35.323-101.903
			L479.217,134.252z"/>
		
		<path class="gray" d="M496.658,134.25c0-1.476-0.05-2.923-0.154-4.42c-0.039-0.608-0.096-1.229-0.17-1.889
			c-0.102-1.041-0.203-1.909-0.321-2.729l-0.011-0.079l-0.013-0.08c-0.038-0.244-0.077-0.493-0.118-0.74l-0.012-0.069l-0.014-0.069
			c-0.072-0.409-0.149-0.806-0.236-1.229c-0.117-0.646-0.252-1.32-0.401-2.008c-0.071-0.337-0.151-0.674-0.241-1.027
			c-0.172-0.687-0.367-1.382-0.592-2.118c-0.168-0.598-0.385-1.336-0.648-2.121c-0.108-0.332-0.227-0.669-0.358-1.027
			c-0.236-0.647-0.496-1.302-0.79-1.994c-0.365-0.927-0.756-1.824-1.162-2.671l-0.053-0.111l-0.014-0.027
			c-0.055-0.117-0.109-0.227-0.164-0.337c-0.306-0.614-0.633-1.232-0.996-1.882c-0.408-0.768-0.959-1.76-1.705-2.922
			c-0.644-1.009-1.232-1.837-1.656-2.408c-0.597-0.834-1.174-1.59-1.758-2.307c-0.586-0.719-1.221-1.444-1.938-2.21
			c-0.839-0.919-1.664-1.759-2.521-2.564l-0.096-0.09c-0.603-0.56-1.229-1.108-1.911-1.672c-0.02-0.018-0.039-0.034-0.059-0.05
			c-0.914-0.778-1.784-1.465-2.654-2.097c-0.826-0.604-1.604-1.122-2.166-1.482c-0.932-0.619-1.83-1.173-2.812-1.735l-0.077-0.044
			L470.758,88c-0.78-0.437-1.604-0.863-2.511-1.303c-0.885-0.446-1.745-0.847-2.562-1.196c-0.838-0.362-1.735-0.715-2.669-1.051
			c-0.995-0.373-1.879-0.677-2.771-0.954c-0.75-0.234-1.533-0.455-2.448-0.69l-0.013-0.004c-0.075-0.02-0.15-0.04-0.221-0.058
			c-0.898-0.237-1.66-0.421-2.324-0.562c-1.016-0.223-1.959-0.387-2.688-0.507c-0.547-0.095-1.189-0.202-1.91-0.303
			c-0.164-0.025-0.308-0.045-0.432-0.061l-0.068-0.01l-0.127-0.016c-0.624-0.08-1.28-0.15-2.062-0.221l-0.144-0.014l-0.054-0.005
			l-0.054-0.005c-0.838-0.078-1.561-0.135-2.273-0.179l-0.021-0.001l-0.021-0.001c-0.664-0.04-1.366-0.067-2.139-0.083
			c-0.676-0.027-1.347-0.041-2.045-0.041l-100.137,0.002h-0.23l-0.115,0.002c-0.938,0.012-1.922,0.059-3.008,0.142L301.6,83.631
			l24.669,26.52l56.342,60.567v318.338l0.001,0.089c0.167,16.357-4.993,29.296-14.921,37.418l-0.455,0.371l-0.428,0.402
			l-85.244,79.884l-22.858,16.932c-5.683-37.701-6.821-63.119-7.723-70.473l-12.426-101.325c-0.718-5.854-4.347-10.949-9.646-13.543
			c-2.424-1.186-5.048-1.775-7.667-1.775c-2.918,0-5.829,0.731-8.45,2.184c-0.201,0.107-0.397,0.217-0.591,0.329
			c-0.062,0.036-0.124,0.072-0.186,0.109c-17.068,10.177-26.467,28.609-26.467,51.901c0.016,40.811,19.086,103.417,71.388,133.901
			l-0.051,0.038c0,0,7.032,6.307,31.224,12.571c32.837,8.503,68.605,10.849,116.304-6.343c19.241-6.935,35.782-19.918,50.414-35.406
			l1.777-1.878c12.146-12.83,22.778-24.883,29.873-42.466c7.07-17.526,10.225-39.556,10.225-71.427L496.658,134.25z M202.992,491.559
			c0-19.164,7.672-30.787,17.958-36.92c0.096-0.057,0.197-0.104,0.293-0.161l15.907,129.706
			C214.488,559.562,203.007,528.445,202.992,491.559z M443.939,582.453l-1.789,1.89c-26.064,27.59-59.57,41.846-99.594,42.365
			c-0.727,0.014-1.583,0.019-2.443,0.019l-0.484-0.004c-0.098,0-0.293-0.001-0.389-0.001l-5.12-0.104
			c-0.081-0.003-0.163-0.005-0.246-0.01l-0.292-0.01c-0.529-0.021-1.051-0.037-1.577-0.064c-0.608-0.022-1.222-0.055-1.829-0.093
			l-1.567-0.093c-0.068-0.003-0.138-0.006-0.204-0.009c-0.625-0.045-1.238-0.093-1.855-0.141c-0.602-0.051-1.195-0.094-1.787-0.148
			c-0.474-0.037-1.098-0.102-1.739-0.165c-0.604-0.062-1.209-0.12-1.812-0.188l-1.471-0.172c-0.167-0.018-0.333-0.038-0.501-0.059
			l-0.414-0.053c-0.406-0.052-0.811-0.105-1.213-0.162c-0.324-0.037-0.646-0.084-0.967-0.131l-0.439-0.06
			c-0.149-0.021-0.305-0.042-0.458-0.067l-0.362-0.057c-0.491-0.069-0.982-0.149-1.471-0.228l-0.197-0.031
			c-0.487-0.076-0.975-0.157-1.461-0.239l-1.436-0.251c-0.69-0.121-1.305-0.237-1.913-0.359c-0.626-0.123-1.251-0.241-1.872-0.371
			l-1.369-0.29c-0.067-0.015-0.138-0.031-0.203-0.048c-0.569-0.119-1.136-0.253-1.7-0.383c-0.545-0.126-1.084-0.258-1.626-0.386
			c-0.594-0.146-1.13-0.287-1.666-0.425c-0.458-0.115-0.91-0.234-1.367-0.353l-0.197-0.051c-0.667-0.178-1.242-0.342-1.815-0.506
			c-0.067-0.017-0.209-0.061-0.28-0.079l-2.946-0.872c-0.063-0.024-0.131-0.044-0.194-0.061l-0.183-0.06l85.244-79.884
			c12.884-10.539,21.558-27.611,21.318-51.096l-0.001-325.108L339.04,98.271c0.633-0.048,1.271-0.084,1.914-0.093h0.115
			l100.136-0.002c0.521,0,1.01,0.011,1.498,0.033c0.613,0.011,1.146,0.03,1.65,0.06c0.596,0.037,1.163,0.084,1.736,0.137l0.217,0.021
			c0.51,0.046,1.014,0.097,1.499,0.159c0.091,0.013,0.179,0.022,0.267,0.039c0.541,0.073,1.055,0.158,1.576,0.249
			c0.736,0.121,1.34,0.231,1.918,0.36c0.424,0.088,0.994,0.229,1.572,0.382c0.061,0.015,0.217,0.058,0.281,0.074
			c0.595,0.153,1.137,0.303,1.658,0.465c0.68,0.211,1.303,0.434,1.933,0.671c0.564,0.201,1.183,0.438,1.792,0.702
			c0.551,0.234,1.135,0.511,1.716,0.806c0.605,0.291,1.181,0.585,1.728,0.891c0.765,0.438,1.356,0.812,1.949,1.209
			c0.411,0.26,0.926,0.603,1.42,0.966c0.566,0.409,1.133,0.864,1.679,1.33c0.023,0.019,0.062,0.052,0.108,0.091
			c0.439,0.362,0.855,0.723,1.254,1.093c0.586,0.551,1.139,1.121,1.666,1.702c0.438,0.464,0.85,0.925,1.237,1.403
			c0.412,0.505,0.802,1.026,1.179,1.558c0.206,0.274,0.607,0.824,1.062,1.541c0.517,0.803,0.873,1.477,1.077,1.863
			c0.249,0.439,0.476,0.86,0.692,1.298c0.041,0.08,0.076,0.159,0.115,0.238c0.27,0.562,0.52,1.149,0.75,1.747
			c0.195,0.453,0.383,0.91,0.561,1.398c0.061,0.164,0.119,0.327,0.171,0.491c0.171,0.5,0.325,1.031,0.474,1.562
			c0.157,0.506,0.295,0.986,0.422,1.491c0.031,0.125,0.062,0.25,0.088,0.377c0.117,0.536,0.23,1.102,0.33,1.663
			c0.072,0.351,0.137,0.667,0.195,0.997c0.025,0.152,0.05,0.305,0.072,0.455c0.092,0.633,0.164,1.297,0.229,1.964l0.006,0.08
			c0.052,0.426,0.092,0.833,0.119,1.25c0.073,1.054,0.115,2.135,0.115,3.26l0.046,346.297
			C479.263,542.265,467.149,557.936,443.939,582.453z"/>
	</g>
</svg>


