<svg xmlns="http://www.w3.org/2000/svg" viewBox="-5 -5 82 82">
<g>
<!-- 	<line stroke-width="1" x1="" y1="" x2="" y2="" stroke="black" opacity="0.5"></line> -->
</g>
	<path d="M22.5 9v24.455c-5.689-1.579-7.073-2.377-13.078-2.377-5.195 0-9.422 4.227-9.422 9.422s4.227 9.422 9.422 9.422c7.311 0 10.684 2.723 14.464 8.092 0.112 0.159 0.222 0.322 0.331 0.486h-6.217v13.5h45v-13.5h-4.008c0.302-4.476 1.56-5.704 3.1-7.203 1.188-1.157 2.666-2.596 3.746-5.205 1.134-2.739 1.662-6.303 1.662-11.217v-4.569c0-4.355-3.605-7.898-8.036-7.898-0.736 0-1.468 0.1-2.173 0.295-1.476-1.386-3.445-2.177-5.542-2.177-0.736 0-1.468 0.1-2.173 0.295-1.476-1.386-3.446-2.177-5.542-2.177-1.268 0-2.468 0.291-3.536 0.808v-10.451c0-4.971-4.029-9-9-9s-9 4.029-9 9zM58.5 65.25c0 1.243-1.007 2.25-2.25 2.25s-2.25-1.007-2.25-2.25 1.007-2.25 2.25-2.25 2.25 1.007 2.25 2.25zM36 9.422v18h4.5v-0.459c0-1.874 1.586-3.398 3.536-3.398 1.221 0 2.341 0.595 2.994 1.593l1.142 1.743 1.825-1.005c0.532-0.293 1.138-0.448 1.753-0.448 1.221 0 2.341 0.595 2.994 1.593l1.142 1.743 1.825-1.005c0.532-0.293 1.138-0.448 1.753-0.448 1.949 0 3.536 1.524 3.536 3.398v4.569c0 8.899-2.686 10.694-4.637 12.594-1.991 1.94-4.218 4.113-4.692 10.609h-23.511c-0.581-1.108-1.214-2.159-1.905-3.14-4.771-6.778-9.812-10.36-18.834-10.36-2.249 0-4.078-2.111-4.078-4.359s1.829-4.219 4.078-4.219c6.023 0 7.412 0.873 13.078 2.599 1.599 0.431 3.183 0.838 4.453 1.116l0.047-30.715c0-2.481 2.019-4.5 4.5-4.5s4.5 2.019 4.5 4.5z" fill="#000">
	</path>
</svg>
